<svg width="64" height="64" viewBox="0 0 64 64" fill="none" xmlns="http://www.w3.org/2000/svg">
<path d="M43 18.0039C43 20.9213 41.8411 23.7192 39.7782 25.7821C37.7153 27.845 34.9174 29.0039 32 29.0039C29.0826 29.0039 26.2847 27.845 24.2218 25.7821C22.1589 23.7192 21 20.9213 21 18.0039L32 18.0039H43Z" fill="#036280"/>
<path d="M54.3165 31.7911C54.3165 34.7487 53.734 37.6773 52.6022 40.4097C51.4704 43.1421 49.8114 45.6249 47.7201 47.7162C45.6288 49.8075 43.146 51.4665 40.4136 52.5983C37.6812 53.7301 34.7526 54.3126 31.795 54.3126C28.8374 54.3126 25.9088 53.7301 23.1764 52.5983C20.4439 51.4665 17.9612 49.8075 15.8698 47.7162C13.7785 45.6249 12.1196 43.1421 10.9878 40.4097C9.85597 37.6773 9.27344 34.7487 9.27344 31.7911L31.795 31.7911L54.3165 31.7911Z" fill="#CDE0E6" fill-opacity="0.5"/>
</svg>