<svg width="64" height="64" viewBox="0 0 64 64" fill="none" xmlns="http://www.w3.org/2000/svg">
<circle cx="32" cy="31" r="8" fill="#A48B6F"/>
<path d="M53.9744 35.7019C53.2413 39.8596 51.3543 43.7276 48.5286 46.8644C45.703 50.0013 42.0526 52.2807 37.9938 53.4428C33.935 54.6048 29.6313 54.6025 25.5737 53.4363C21.5161 52.2701 17.8681 49.9868 15.0457 46.847C12.2233 43.7072 10.3403 39.8373 9.61154 35.6789C8.88274 31.5204 9.33749 27.2408 10.9239 23.3283C12.5103 19.4159 15.1645 16.0281 18.5837 13.5515C22.0028 11.075 26.0493 9.60931 30.2613 9.32181L30.8532 17.9927C28.2665 18.1692 25.7816 19.0693 23.6819 20.5901C21.5822 22.111 19.9522 24.1914 18.978 26.5941C18.0038 28.9967 17.7245 31.6248 18.1721 34.1786C18.6197 36.7323 19.776 39.1088 21.5092 41.037C23.2424 42.9651 25.4827 44.3673 27.9745 45.0835C30.4663 45.7996 33.1092 45.801 35.6017 45.0874C38.0942 44.3738 40.3359 42.974 42.0711 41.0476C43.8064 39.1213 44.9652 36.746 45.4154 34.1927L53.9744 35.7019Z" fill="#EDE8E2"/>
</svg>
