<svg width="168" height="37" viewBox="0 0 168 37" fill="none" xmlns="http://www.w3.org/2000/svg">
<path d="M7.48771 -1.90735e-05H37.5121V1.61153H7.48771V-1.90735e-05ZM6.11683 3.13011L38.8832 3.13029C44.3109 3.13029 47.0468 9.72365 43.2052 13.5653C39.3634 17.4067 32.7704 14.6704 32.7704 9.24301H34.3818C34.3818 13.2406 39.2378 15.2536 42.0657 12.4256C44.8933 9.59805 42.8811 4.74183 38.8832 4.74183H6.11683C2.11857 4.74183 0.106018 9.59805 2.93408 12.4256C5.76196 15.2536 10.618 13.2409 10.618 9.24301H12.2296C12.2296 14.6707 5.63636 17.4067 1.79457 13.5653C-2.04669 9.72365 0.689103 3.13029 6.11683 3.13029V3.13011ZM29.5201 9.24301H31.1315V31.4331H35.806V33.0447H29.5201V9.24301ZM15.4798 9.24301V33.0447H9.19328V31.4331H13.8683V9.24301H15.4798ZM18.6105 36.1752H7.49893V34.5638H16.9986V9.24301H18.61L18.6105 36.1752ZM24.8713 36.1752H20.1287V9.24301H21.7406V34.5638H23.2594L23.259 9.24301H24.8713V36.1752ZM28.0012 34.5638H37.5009V36.1752H26.3898C26.3898 27.1979 26.3895 18.2205 26.3895 9.24301H28.0012V34.5638ZM37.5121 9.24301C37.5121 10.4613 38.9916 11.073 39.852 10.2122C40.7133 9.35124 40.1011 7.87213 38.8832 7.87213H6.11683C4.89891 7.87213 4.28706 9.35142 5.14748 10.2122C6.00825 11.073 7.48771 10.4613 7.48771 9.24301H9.09925C9.09925 11.8906 5.88247 13.2262 4.00833 11.3517C2.13366 9.47701 3.46927 6.26058 6.11683 6.26058H38.8832C41.5304 6.26058 42.8663 9.47684 40.992 11.3517C39.1173 13.2262 35.9007 11.8907 35.9007 9.24301H37.5121Z" fill="black"/>
<path d="M73.584 25.6436C73.856 26.0436 74.152 26.3636 74.472 26.6036C74.808 26.8276 75.216 26.9956 75.696 27.1076V27.5876C74.928 27.5396 73.968 27.5156 72.816 27.5156C71.952 27.5156 71.128 27.5396 70.344 27.5876V27.1076C70.728 27.0916 71.008 27.0436 71.184 26.9636C71.36 26.8836 71.448 26.7636 71.448 26.6036C71.448 26.4436 71.368 26.2516 71.208 26.0276L67.704 20.7476C67.24 20.0436 66.848 19.5876 66.528 19.3796C66.208 19.1556 65.76 19.0276 65.184 18.9956V25.0436C65.184 25.6516 65.232 26.0916 65.328 26.3636C65.424 26.6356 65.6 26.8196 65.856 26.9156C66.128 27.0116 66.552 27.0756 67.128 27.1076V27.5876C66.392 27.5396 65.376 27.5156 64.08 27.5156C62.704 27.5156 61.68 27.5396 61.008 27.5876V27.1076C61.584 27.0756 62 27.0116 62.256 26.9156C62.528 26.8196 62.712 26.6356 62.808 26.3636C62.904 26.0916 62.952 25.6516 62.952 25.0436V13.1396C62.952 12.5316 62.904 12.0916 62.808 11.8196C62.712 11.5476 62.528 11.3636 62.256 11.2676C62 11.1716 61.584 11.1076 61.008 11.0756V10.5956C61.68 10.6436 62.704 10.6676 64.08 10.6676C65.36 10.6676 66.376 10.6436 67.128 10.5956V11.0756C66.552 11.1076 66.128 11.1716 65.856 11.2676C65.6 11.3636 65.424 11.5476 65.328 11.8196C65.232 12.0916 65.184 12.5316 65.184 13.1396V18.5156C66.352 18.4676 67.264 18.0196 67.92 17.1716L70.224 14.2436C71.04 13.2356 71.448 12.4676 71.448 11.9396C71.448 11.3796 70.952 11.0916 69.96 11.0756V10.5956C70.872 10.6436 71.792 10.6676 72.72 10.6676C73.6 10.6676 74.28 10.6436 74.76 10.5956V11.0756C74.232 11.1556 73.736 11.3316 73.272 11.6036C72.808 11.8596 72.36 12.2676 71.928 12.8276L68.016 17.8436L73.584 25.6436ZM81.8706 10.3316C82.5746 10.3316 83.1266 10.4116 83.5266 10.5716C83.9426 10.7156 84.3666 10.9316 84.7986 11.2196C85.1506 11.4436 85.4226 11.5556 85.6146 11.5556C85.7586 11.5556 85.8706 11.4756 85.9506 11.3156C86.0306 11.1396 86.0946 10.8676 86.1426 10.4996H86.6946C86.6146 11.4276 86.5746 13.0596 86.5746 15.3956H86.0226C85.9266 14.0996 85.5506 13.0116 84.8946 12.1316C84.2546 11.2356 83.3186 10.7876 82.0866 10.7876C81.2226 10.7876 80.5186 11.0516 79.9746 11.5796C79.4306 12.0916 79.1586 12.7556 79.1586 13.5716C79.1586 14.1796 79.2946 14.7076 79.5666 15.1556C79.8546 15.6036 80.2146 15.9876 80.6466 16.3076C81.0786 16.6276 81.6946 17.0356 82.4946 17.5316L83.1906 17.9636C84.1986 18.5876 84.9906 19.1396 85.5666 19.6196C86.1586 20.0836 86.6306 20.6196 86.9826 21.2276C87.3346 21.8356 87.5106 22.5476 87.5106 23.3636C87.5106 24.8196 87.0306 25.9476 86.0706 26.7476C85.1106 27.5316 83.8946 27.9236 82.4226 27.9236C81.6546 27.9236 81.0226 27.8436 80.5266 27.6836C80.0466 27.5236 79.5826 27.3076 79.1346 27.0356C78.7826 26.8116 78.5106 26.6996 78.3186 26.6996C78.1746 26.6996 78.0626 26.7876 77.9826 26.9636C77.9026 27.1236 77.8386 27.3876 77.7906 27.7556H77.2386C77.3026 26.8756 77.3346 24.9556 77.3346 21.9956H77.8866C77.9986 23.6116 78.3986 24.9236 79.0866 25.9316C79.7746 26.9396 80.8306 27.4436 82.2546 27.4436C83.1186 27.4436 83.8546 27.1796 84.4626 26.6516C85.0706 26.1076 85.3746 25.3076 85.3746 24.2516C85.3746 23.3556 85.0706 22.5956 84.4626 21.9716C83.8706 21.3476 82.9266 20.6436 81.6306 19.8596C80.6866 19.2836 79.9186 18.7716 79.3266 18.3236C78.7506 17.8756 78.2786 17.3396 77.9106 16.7156C77.5426 16.0756 77.3586 15.3316 77.3586 14.4836C77.3586 13.1396 77.7906 12.1156 78.6546 11.4116C79.5186 10.6916 80.5906 10.3316 81.8706 10.3316ZM101.792 11.0756C101.216 11.1076 100.792 11.1716 100.52 11.2676C100.264 11.3636 100.088 11.5476 99.9921 11.8196C99.8961 12.0916 99.8481 12.5316 99.8481 13.1396V25.0436C99.8481 25.6516 99.8961 26.0916 99.9921 26.3636C100.088 26.6356 100.264 26.8196 100.52 26.9156C100.792 26.9956 101.216 27.0356 101.792 27.0356H103.544C104.536 27.0356 105.288 26.8996 105.8 26.6276C106.328 26.3396 106.712 25.8836 106.952 25.2596C107.192 24.6356 107.368 23.7316 107.48 22.5476H108.032C107.984 23.0436 107.96 23.6996 107.96 24.5156C107.96 25.4276 108.016 26.4516 108.128 27.5876C107.04 27.5396 105.208 27.5156 102.632 27.5156C99.5601 27.5156 97.2401 27.5396 95.6721 27.5876V27.1076C96.2481 27.0756 96.6641 27.0116 96.9201 26.9156C97.1921 26.8196 97.3761 26.6356 97.4721 26.3636C97.5681 26.0916 97.6161 25.6516 97.6161 25.0436V13.1396C97.6161 12.5316 97.5681 12.0916 97.4721 11.8196C97.3761 11.5476 97.1921 11.3636 96.9201 11.2676C96.6641 11.1716 96.2481 11.1076 95.6721 11.0756V10.5956C96.3441 10.6436 97.3681 10.6676 98.7441 10.6676C100.024 10.6676 101.04 10.6436 101.792 10.5956V11.0756ZM121.589 24.7556C121.589 25.5876 121.645 26.5316 121.757 27.5876C120.717 27.5396 118.965 27.5156 116.501 27.5156C113.541 27.5156 111.301 27.5396 109.781 27.5876V27.1076C110.357 27.0756 110.773 27.0116 111.029 26.9156C111.301 26.8196 111.485 26.6356 111.581 26.3636C111.677 26.0916 111.725 25.6516 111.725 25.0436V15.5396C111.725 14.9316 111.677 14.4916 111.581 14.2196C111.485 13.9476 111.301 13.7636 111.029 13.6676C110.773 13.5716 110.357 13.5076 109.781 13.4756V12.9956C111.301 13.0436 113.541 13.0676 116.501 13.0676C118.741 13.0676 120.333 13.0436 121.277 12.9956C121.165 13.9556 121.109 14.8196 121.109 15.5876C121.109 16.2116 121.133 16.7076 121.181 17.0756H120.629C120.517 15.7636 120.237 14.8516 119.789 14.3396C119.357 13.8116 118.645 13.5476 117.653 13.5476H115.901C115.325 13.5476 114.901 13.5956 114.629 13.6916C114.373 13.7716 114.197 13.9476 114.101 14.2196C114.005 14.4916 113.957 14.9316 113.957 15.5396V20.0036H115.949C116.461 20.0036 116.853 19.8756 117.125 19.6196C117.397 19.3476 117.581 19.0596 117.677 18.7556C117.773 18.4356 117.861 18.0356 117.941 17.5556H118.493C118.445 18.0996 118.421 18.6916 118.421 19.3316V20.2436C118.421 20.8676 118.469 21.7636 118.565 22.9316H118.013C117.917 22.1636 117.733 21.5636 117.461 21.1316C117.189 20.6996 116.685 20.4836 115.949 20.4836H113.957V25.0436C113.957 25.6516 114.005 26.0916 114.101 26.3636C114.197 26.6356 114.373 26.8196 114.629 26.9156C114.901 26.9956 115.325 27.0356 115.901 27.0356H117.653C118.453 27.0356 119.085 26.9076 119.549 26.6516C120.013 26.3956 120.365 25.9876 120.605 25.4276C120.845 24.8516 121.013 24.0516 121.109 23.0276H121.661C121.613 23.4596 121.589 24.0356 121.589 24.7556ZM131.495 12.6596C132.391 12.6596 133.111 12.7876 133.655 13.0436C134.215 13.2996 134.807 13.6916 135.431 14.2196C135.639 14.3796 135.799 14.4596 135.911 14.4596C136.215 14.4596 136.415 13.9716 136.511 12.9956H137.063C136.999 13.9076 136.967 15.5076 136.967 17.7956H136.415C136.287 17.1876 136.127 16.6516 135.935 16.1876C135.759 15.7236 135.519 15.3156 135.215 14.9636C134.687 14.3556 134.135 13.8916 133.559 13.5716C132.983 13.2516 132.279 13.0916 131.447 13.0916C130.487 13.0916 129.655 13.3876 128.951 13.9796C128.247 14.5556 127.703 15.3876 127.319 16.4756C126.935 17.5636 126.743 18.8436 126.743 20.3156C126.743 22.7636 127.191 24.5636 128.087 25.7156C128.983 26.8676 130.319 27.4436 132.095 27.4436C132.783 27.4436 133.399 27.3796 133.943 27.2516C134.231 27.1876 134.423 27.0836 134.519 26.9396C134.631 26.7956 134.687 26.5956 134.687 26.3396V24.2756C134.687 23.6036 134.623 23.1156 134.495 22.8116C134.367 22.5076 134.143 22.2996 133.823 22.1876C133.503 22.0756 132.983 22.0036 132.263 21.9716V21.4916C133.127 21.5396 134.255 21.5636 135.647 21.5636C136.735 21.5636 137.567 21.5396 138.143 21.4916V21.9716C137.775 22.0036 137.511 22.0676 137.351 22.1636C137.191 22.2596 137.079 22.4436 137.015 22.7156C136.951 22.9876 136.919 23.4276 136.919 24.0356V27.5876H136.439C136.407 27.2036 136.287 27.0116 136.079 27.0116C135.983 27.0116 135.807 27.0676 135.551 27.1796C135.295 27.2916 135.119 27.3636 135.023 27.3956C133.999 27.7476 132.951 27.9236 131.879 27.9236C129.479 27.9236 127.623 27.2836 126.311 26.0036C124.999 24.7076 124.343 22.8996 124.343 20.5796C124.343 18.9796 124.647 17.5876 125.255 16.4036C125.863 15.2036 126.703 14.2836 127.775 13.6436C128.863 12.9876 130.103 12.6596 131.495 12.6596ZM152.114 25.5716C152.546 26.5636 153.098 27.0756 153.77 27.1076V27.5876C153.13 27.5396 152.274 27.5156 151.202 27.5156C149.826 27.5156 148.802 27.5396 148.13 27.5876V27.1076C148.722 27.0756 149.154 26.9956 149.426 26.8676C149.714 26.7396 149.858 26.5236 149.858 26.2196C149.858 25.9636 149.746 25.5876 149.522 25.0916L148.298 22.3556H142.466L141.65 24.1556C141.378 24.7796 141.242 25.2916 141.242 25.6916C141.242 26.1076 141.386 26.4356 141.674 26.6756C141.978 26.8996 142.458 27.0436 143.114 27.1076V27.5876C142.634 27.5396 141.906 27.5156 140.93 27.5156C139.954 27.5156 139.258 27.5396 138.842 27.5876V27.1076C139.274 26.9956 139.642 26.7556 139.946 26.3876C140.25 26.0036 140.538 25.4996 140.81 24.8756L146.114 12.8756H146.498L152.114 25.5716ZM148.106 21.8756L145.394 15.7796L142.658 21.8756H148.106ZM160.831 13.4756C160.255 13.5076 159.831 13.5716 159.559 13.6676C159.303 13.7636 159.127 13.9476 159.031 14.2196C158.935 14.4916 158.887 14.9316 158.887 15.5396V25.0436C158.887 25.6516 158.935 26.0916 159.031 26.3636C159.127 26.6356 159.303 26.8196 159.559 26.9156C159.831 26.9956 160.255 27.0356 160.831 27.0356H162.343C163.447 27.0356 164.303 26.7076 164.911 26.0516C165.535 25.3956 165.911 24.3076 166.039 22.7876H166.591C166.543 23.2836 166.519 23.9396 166.519 24.7556C166.519 25.5876 166.575 26.5316 166.687 27.5876C165.647 27.5396 163.895 27.5156 161.431 27.5156C158.471 27.5156 156.231 27.5396 154.711 27.5876V27.1076C155.287 27.0756 155.703 27.0116 155.959 26.9156C156.231 26.8196 156.415 26.6356 156.511 26.3636C156.607 26.0916 156.655 25.6516 156.655 25.0436V15.5396C156.655 14.9316 156.607 14.4916 156.511 14.2196C156.415 13.9476 156.231 13.7636 155.959 13.6676C155.703 13.5716 155.287 13.5076 154.711 13.4756V12.9956C155.383 13.0436 156.407 13.0676 157.783 13.0676C159.063 13.0676 160.079 13.0436 160.831 12.9956V13.4756Z" fill="black"/>
</svg>
