<svg width="218" height="37" viewBox="0 0 218 37" fill="none" xmlns="http://www.w3.org/2000/svg">
<path d="M7.48771 -1.78583e-05H37.5121V1.61153H7.48771V-1.78583e-05ZM6.11683 3.13011L38.8832 3.13029C44.3109 3.13029 47.0468 9.72365 43.2052 13.5653C39.3634 17.4067 32.7704 14.6704 32.7704 9.24301H34.3818C34.3818 13.2406 39.2378 15.2536 42.0657 12.4256C44.8933 9.59805 42.8811 4.74183 38.8832 4.74183H6.11683C2.11857 4.74183 0.106018 9.59805 2.93408 12.4256C5.76196 15.2536 10.618 13.2409 10.618 9.24301H12.2296C12.2296 14.6707 5.63636 17.4067 1.79457 13.5653C-2.04669 9.72365 0.689103 3.13029 6.11683 3.13029V3.13011ZM29.5201 9.24301H31.1315V31.4331H35.806V33.0447H29.5201V9.24301ZM15.4798 9.24301V33.0447H9.19328V31.4331H13.8683V9.24301H15.4798ZM18.6105 36.1752H7.49893V34.5638H16.9986V9.24301H18.61L18.6105 36.1752ZM24.8713 36.1752H20.1287V9.24301H21.7406V34.5638H23.2594L23.259 9.24301H24.8713V36.1752ZM28.0012 34.5638H37.5009V36.1752H26.3898C26.3898 27.1979 26.3895 18.2205 26.3895 9.24301H28.0012V34.5638ZM37.5121 9.24301C37.5121 10.4613 38.9916 11.073 39.852 10.2122C40.7133 9.35124 40.1011 7.87213 38.8832 7.87213H6.11683C4.89891 7.87213 4.28706 9.35142 5.14748 10.2122C6.00825 11.073 7.48771 10.4613 7.48771 9.24301H9.09925C9.09925 11.8906 5.88247 13.2262 4.00833 11.3517C2.13366 9.47702 3.46927 6.26058 6.11683 6.26058H38.8832C41.5304 6.26058 42.8663 9.47684 40.992 11.3517C39.1173 13.2262 35.9007 11.8907 35.9007 9.24301H37.5121Z" fill="#0C3179"/>
<path d="M60.84 26.5876V26.3476L61.632 26.1076C61.92 26.0276 62.128 25.8756 62.256 25.6516C62.384 25.4116 62.448 25.1316 62.448 24.8116V13.2676C62.272 12.8836 62.128 12.5956 62.016 12.4036C61.92 12.2116 61.808 12.0516 61.68 11.9236C61.552 11.7796 61.376 11.6036 61.152 11.3956L60.744 10.9876V10.7476H64.992L72.96 21.6196V12.5716C72.96 12.2516 72.904 11.9636 72.792 11.7076C72.696 11.4516 72.488 11.2836 72.168 11.2036L71.376 10.9876V10.7476H74.808V10.9876L74.16 11.2036C73.872 11.2996 73.696 11.4676 73.632 11.7076C73.568 11.9476 73.536 12.2276 73.536 12.5476V26.6596H72.192L63.024 14.0596V24.8116C63.024 25.1316 63.072 25.4036 63.168 25.6276C63.264 25.8516 63.464 26.0116 63.768 26.1076L64.488 26.3476V26.5876H60.84ZM81.4583 26.9476C80.2423 26.9476 79.1863 26.6996 78.2903 26.2036C77.3943 25.6916 76.6983 24.9716 76.2023 24.0436C75.7223 23.1156 75.4823 22.0276 75.4823 20.7796C75.4823 19.5316 75.7383 18.4516 76.2503 17.5396C76.7783 16.6276 77.4903 15.9236 78.3863 15.4276C79.2983 14.9316 80.3223 14.6836 81.4583 14.6836C82.5943 14.6836 83.6103 14.9316 84.5063 15.4276C85.4023 15.9076 86.1063 16.6036 86.6183 17.5156C87.1463 18.4276 87.4103 19.5156 87.4103 20.7796C87.4103 22.0436 87.1623 23.1396 86.6663 24.0676C86.1863 24.9796 85.4983 25.6916 84.6023 26.2036C83.7223 26.6996 82.6743 26.9476 81.4583 26.9476ZM81.4583 26.4676C82.0183 26.4676 82.4663 26.3076 82.8023 25.9876C83.1383 25.6676 83.3783 25.0996 83.5223 24.2836C83.6823 23.4676 83.7623 22.3156 83.7623 20.8276C83.7623 19.3236 83.6823 18.1636 83.5223 17.3476C83.3783 16.5316 83.1383 15.9636 82.8023 15.6436C82.4663 15.3236 82.0183 15.1636 81.4583 15.1636C80.8983 15.1636 80.4423 15.3236 80.0903 15.6436C79.7543 15.9636 79.5063 16.5316 79.3463 17.3476C79.2023 18.1636 79.1303 19.3236 79.1303 20.8276C79.1303 22.3156 79.2023 23.4676 79.3463 24.2836C79.5063 25.0996 79.7543 25.6676 80.0903 25.9876C80.4423 26.3076 80.8983 26.4676 81.4583 26.4676ZM88.4644 26.5876V26.3476L88.8244 26.2516C89.1444 26.1556 89.3604 26.0116 89.4724 25.8196C89.6004 25.6276 89.6644 25.3796 89.6644 25.0756V17.5636C89.6644 17.2116 89.6004 16.9556 89.4724 16.7956C89.3604 16.6196 89.1444 16.4996 88.8244 16.4356L88.4644 16.3396V16.0996L92.5924 14.7076L92.8324 14.9476L93.0484 17.0116V17.2036C93.2724 16.7556 93.5604 16.3476 93.9124 15.9796C94.2804 15.5956 94.6804 15.2836 95.1124 15.0436C95.5604 14.8036 96.0004 14.6836 96.4324 14.6836C97.0404 14.6836 97.5044 14.8516 97.8244 15.1876C98.1444 15.5236 98.3044 15.9476 98.3044 16.4596C98.3044 17.0036 98.1444 17.4276 97.8244 17.7316C97.5204 18.0196 97.1524 18.1636 96.7204 18.1636C96.0484 18.1636 95.4564 17.8276 94.9444 17.1556L94.8964 17.1076C94.7364 16.8836 94.5524 16.7636 94.3444 16.7476C94.1364 16.7156 93.9444 16.8116 93.7684 17.0356C93.6084 17.1796 93.4724 17.3556 93.3604 17.5636C93.2644 17.7556 93.1684 17.9796 93.0724 18.2356V24.9316C93.0724 25.5716 93.3524 25.9716 93.9124 26.1316L94.6804 26.3476V26.5876H88.4644ZM103.829 26.9476C102.805 26.9476 102.005 26.6916 101.429 26.1796C100.869 25.6676 100.589 24.8516 100.589 23.7316V15.5236H98.9331V15.2836L99.5091 15.1876C100.005 15.0756 100.429 14.9156 100.781 14.7076C101.149 14.4996 101.509 14.2196 101.861 13.8676L103.829 11.6836H104.069L103.997 15.0436H106.685V15.5236H103.973V24.1636C103.973 24.7236 104.093 25.1476 104.333 25.4356C104.589 25.7236 104.909 25.8676 105.293 25.8676C105.629 25.8676 105.925 25.7876 106.181 25.6276C106.437 25.4516 106.693 25.2196 106.949 24.9316L107.189 25.1716C106.869 25.7156 106.429 26.1476 105.869 26.4676C105.309 26.7876 104.629 26.9476 103.829 26.9476ZM108.013 26.5876V26.3476L108.301 26.2516C108.877 26.0596 109.165 25.6596 109.165 25.0516V12.2356C109.165 11.8996 109.109 11.6516 108.997 11.4916C108.885 11.3316 108.669 11.2116 108.349 11.1316L107.989 11.0356V10.7956L112.213 9.76358L112.597 9.97958L112.501 13.3636V16.3636C113.061 15.8996 113.661 15.5076 114.301 15.1876C114.957 14.8516 115.677 14.6836 116.461 14.6836C117.501 14.6836 118.325 14.9796 118.933 15.5716C119.557 16.1636 119.869 17.0756 119.869 18.3076V25.0756C119.869 25.3956 119.933 25.6516 120.061 25.8436C120.189 26.0356 120.413 26.1796 120.733 26.2756L120.925 26.3476V26.5876H115.309V26.3476L115.597 26.2756C116.173 26.0836 116.461 25.6756 116.461 25.0516V17.5156C116.461 16.8756 116.349 16.4356 116.125 16.1956C115.917 15.9556 115.541 15.8356 114.997 15.8356C114.645 15.8356 114.261 15.9076 113.845 16.0516C113.429 16.1796 113.005 16.4116 112.573 16.7476V25.0996C112.573 25.7236 112.861 26.1236 113.437 26.2996L113.629 26.3476V26.5876H108.013ZM121.863 26.5876V26.3476L122.199 26.2516C122.503 26.1716 122.711 26.0356 122.823 25.8436C122.951 25.6516 123.023 25.3956 123.039 25.0756V17.5636C123.039 17.2116 122.983 16.9556 122.871 16.7956C122.759 16.6196 122.543 16.4996 122.223 16.4356L121.863 16.3396V16.0996L125.967 14.7076L126.207 14.9476L126.399 16.5796C126.927 16.0516 127.527 15.6036 128.199 15.2356C128.887 14.8676 129.599 14.6836 130.335 14.6836C131.103 14.6836 131.719 14.8436 132.183 15.1636C132.647 15.4676 132.999 15.9476 133.239 16.6036C133.863 16.0116 134.535 15.5476 135.255 15.2116C135.991 14.8596 136.703 14.6836 137.391 14.6836C138.527 14.6836 139.359 14.9556 139.887 15.4996C140.431 16.0436 140.703 16.8996 140.703 18.0676V25.0996C140.703 25.7236 140.991 26.1156 141.567 26.2756L141.831 26.3476V26.5876H136.287V26.3476L136.527 26.2756C136.831 26.1796 137.039 26.0356 137.151 25.8436C137.279 25.6516 137.343 25.3956 137.343 25.0756V17.7316C137.343 17.0596 137.223 16.6036 136.983 16.3636C136.743 16.1076 136.359 15.9796 135.831 15.9796C135.415 15.9796 135.007 16.0756 134.607 16.2676C134.223 16.4436 133.815 16.7156 133.383 17.0836C133.463 17.3396 133.511 17.6196 133.527 17.9236C133.559 18.2276 133.575 18.5476 133.575 18.8836V25.0996C133.591 25.7236 133.879 26.1156 134.439 26.2756L134.655 26.3476V26.5876H129.087V26.3476L129.423 26.2516C129.727 26.1556 129.935 26.0196 130.047 25.8436C130.175 25.6516 130.239 25.3956 130.239 25.0756V17.7556C130.239 17.1156 130.119 16.6596 129.879 16.3876C129.655 16.1156 129.263 15.9796 128.703 15.9796C128.335 15.9796 127.967 16.0756 127.599 16.2676C127.231 16.4436 126.847 16.7076 126.447 17.0596V25.0996C126.447 25.7236 126.727 26.1156 127.287 26.2756L127.503 26.3476V26.5876H121.863ZM146.132 26.9476C145.204 26.9476 144.42 26.6836 143.78 26.1556C143.156 25.6276 142.844 24.8676 142.844 23.8756C142.844 23.1236 143.228 22.4356 143.996 21.8116C144.764 21.1716 145.972 20.6916 147.62 20.3716C147.876 20.3236 148.164 20.2756 148.484 20.2276C148.804 20.1636 149.14 20.0996 149.492 20.0356V18.1396C149.492 17.0516 149.356 16.2916 149.084 15.8596C148.828 15.4116 148.42 15.1876 147.86 15.1876C147.476 15.1876 147.172 15.3156 146.948 15.5716C146.724 15.8116 146.58 16.2356 146.516 16.8436L146.468 17.1076C146.436 17.7956 146.268 18.2996 145.964 18.6196C145.66 18.9396 145.284 19.0996 144.836 19.0996C144.42 19.0996 144.076 18.9716 143.804 18.7156C143.532 18.4596 143.396 18.1156 143.396 17.6836C143.396 17.0276 143.62 16.4756 144.068 16.0276C144.532 15.5796 145.14 15.2436 145.892 15.0196C146.644 14.7956 147.46 14.6836 148.34 14.6836C149.764 14.6836 150.86 15.0356 151.628 15.7396C152.412 16.4276 152.804 17.5556 152.804 19.1236V24.4276C152.804 25.1476 153.14 25.5076 153.812 25.5076H154.34L154.556 25.6996C154.252 26.0836 153.916 26.3796 153.548 26.5876C153.196 26.7956 152.692 26.8996 152.036 26.8996C151.332 26.8996 150.772 26.7396 150.356 26.4196C149.956 26.0836 149.692 25.6436 149.564 25.0996C149.084 25.6116 148.588 26.0516 148.076 26.4196C147.58 26.7716 146.932 26.9476 146.132 26.9476ZM147.596 25.4836C147.916 25.4836 148.212 25.4116 148.484 25.2676C148.772 25.1076 149.108 24.8676 149.492 24.5476V20.5156C149.332 20.5476 149.172 20.5796 149.012 20.6116C148.852 20.6436 148.668 20.6756 148.46 20.7076C147.724 20.8996 147.132 21.2276 146.684 21.6916C146.252 22.1396 146.036 22.7476 146.036 23.5156C146.036 24.1716 146.188 24.6676 146.492 25.0036C146.796 25.3236 147.164 25.4836 147.596 25.4836ZM155.003 26.5876V26.3476L155.339 26.2516C155.899 26.0916 156.179 25.6996 156.179 25.0756V17.5636C156.179 17.2116 156.123 16.9556 156.011 16.7956C155.899 16.6196 155.683 16.4996 155.363 16.4356L155.003 16.3396V16.0996L159.107 14.7076L159.347 14.9476L159.539 16.3876C160.099 15.8916 160.731 15.4836 161.435 15.1636C162.139 14.8436 162.835 14.6836 163.523 14.6836C164.579 14.6836 165.387 14.9716 165.947 15.5476C166.523 16.1236 166.811 17.0036 166.811 18.1876V25.0996C166.811 25.7236 167.115 26.1156 167.723 26.2756L167.939 26.3476V26.5876H162.275V26.3476L162.587 26.2516C163.147 26.0756 163.427 25.6836 163.427 25.0756V17.4196C163.427 16.3956 162.915 15.8836 161.891 15.8836C161.187 15.8836 160.419 16.2356 159.587 16.9396V25.0996C159.587 25.7236 159.867 26.1156 160.427 26.2756L160.643 26.3476V26.5876H155.003ZM174.153 26.5876V26.3476L174.657 26.1556C174.993 26.0276 175.201 25.8756 175.281 25.6996C175.377 25.5076 175.425 25.2516 175.425 24.9316V12.4036C175.425 12.0836 175.377 11.8276 175.281 11.6356C175.185 11.4436 174.977 11.2916 174.657 11.1796L174.153 10.9876V10.7476H180.273V10.9876L179.841 11.1796C179.537 11.2916 179.329 11.4516 179.217 11.6596C179.105 11.8516 179.049 12.1076 179.049 12.4276V26.1076H182.745C183.337 26.1076 183.769 25.9636 184.041 25.6756C184.329 25.3876 184.601 24.9716 184.857 24.4276L185.793 22.4116H186.033L185.817 26.5876H174.153ZM190.57 26.9476C189.642 26.9476 188.858 26.6836 188.218 26.1556C187.594 25.6276 187.282 24.8676 187.282 23.8756C187.282 23.1236 187.666 22.4356 188.434 21.8116C189.202 21.1716 190.41 20.6916 192.058 20.3716C192.314 20.3236 192.602 20.2756 192.922 20.2276C193.242 20.1636 193.578 20.0996 193.93 20.0356V18.1396C193.93 17.0516 193.794 16.2916 193.522 15.8596C193.266 15.4116 192.858 15.1876 192.298 15.1876C191.914 15.1876 191.61 15.3156 191.386 15.5716C191.162 15.8116 191.018 16.2356 190.954 16.8436L190.906 17.1076C190.874 17.7956 190.706 18.2996 190.402 18.6196C190.098 18.9396 189.722 19.0996 189.274 19.0996C188.858 19.0996 188.514 18.9716 188.242 18.7156C187.97 18.4596 187.834 18.1156 187.834 17.6836C187.834 17.0276 188.058 16.4756 188.506 16.0276C188.97 15.5796 189.578 15.2436 190.33 15.0196C191.082 14.7956 191.898 14.6836 192.778 14.6836C194.202 14.6836 195.298 15.0356 196.066 15.7396C196.85 16.4276 197.242 17.5556 197.242 19.1236V24.4276C197.242 25.1476 197.578 25.5076 198.25 25.5076H198.778L198.994 25.6996C198.69 26.0836 198.354 26.3796 197.986 26.5876C197.634 26.7956 197.13 26.8996 196.474 26.8996C195.77 26.8996 195.21 26.7396 194.794 26.4196C194.394 26.0836 194.13 25.6436 194.002 25.0996C193.522 25.6116 193.026 26.0516 192.514 26.4196C192.018 26.7716 191.37 26.9476 190.57 26.9476ZM192.034 25.4836C192.354 25.4836 192.65 25.4116 192.922 25.2676C193.21 25.1076 193.546 24.8676 193.93 24.5476V20.5156C193.77 20.5476 193.61 20.5796 193.45 20.6116C193.29 20.6436 193.106 20.6756 192.898 20.7076C192.162 20.8996 191.57 21.2276 191.122 21.6916C190.69 22.1396 190.474 22.7476 190.474 23.5156C190.474 24.1716 190.626 24.6676 190.93 25.0036C191.234 25.3236 191.602 25.4836 192.034 25.4836ZM203.939 26.6596L200.243 16.5076C200.067 15.9956 199.715 15.6356 199.187 15.4276L198.779 15.2836V15.0436H204.659V15.2836L204.299 15.3796C203.675 15.5716 203.467 15.9556 203.675 16.5316L205.907 23.3236L207.899 18.0436L207.443 16.6756C207.331 16.3236 207.211 16.0596 207.083 15.8836C206.971 15.6916 206.819 15.5556 206.627 15.4756L206.219 15.2836V15.0436H211.187V15.2836L210.851 15.4276C210.611 15.5236 210.467 15.6516 210.419 15.8116C210.371 15.9716 210.403 16.2116 210.515 16.5316L212.723 23.2036L215.003 16.5796C215.227 15.9716 215.107 15.5876 214.643 15.4276L214.115 15.2836V15.0436H216.995V15.2836L216.419 15.4516C216.147 15.5316 215.947 15.6596 215.819 15.8356C215.707 15.9956 215.603 16.2196 215.507 16.5076L212.051 26.6596H210.827L208.163 18.8116L205.331 26.6596H203.939Z" fill="#0C3179"/>
</svg>