<svg width="199" height="37" viewBox="0 0 199 37" fill="none" xmlns="http://www.w3.org/2000/svg">
<path d="M7.48771 -1.90735e-05H37.5121V1.61153H7.48771V-1.90735e-05ZM6.11683 3.13011L38.8832 3.13029C44.3109 3.13029 47.0468 9.72365 43.2052 13.5653C39.3634 17.4067 32.7704 14.6704 32.7704 9.24301H34.3818C34.3818 13.2406 39.2378 15.2536 42.0657 12.4256C44.8933 9.59805 42.8811 4.74183 38.8832 4.74183H6.11683C2.11857 4.74183 0.106018 9.59805 2.93408 12.4256C5.76196 15.2536 10.618 13.2409 10.618 9.24301H12.2296C12.2296 14.6707 5.63636 17.4067 1.79457 13.5653C-2.04669 9.72365 0.689103 3.13029 6.11683 3.13029V3.13011ZM29.5201 9.24301H31.1315V31.4331H35.806V33.0447H29.5201V9.24301ZM15.4798 9.24301V33.0447H9.19328V31.4331H13.8683V9.24301H15.4798ZM18.6105 36.1752H7.49893V34.5638H16.9986V9.24301H18.61L18.6105 36.1752ZM24.8713 36.1752H20.1287V9.24301H21.7406V34.5638H23.2594L23.259 9.24301H24.8713V36.1752ZM28.0012 34.5638H37.5009V36.1752H26.3898C26.3898 27.1979 26.3895 18.2205 26.3895 9.24301H28.0012V34.5638ZM37.5121 9.24301C37.5121 10.4613 38.9916 11.073 39.852 10.2122C40.7133 9.35124 40.1011 7.87213 38.8832 7.87213H6.11683C4.89891 7.87213 4.28706 9.35142 5.14748 10.2122C6.00825 11.073 7.48771 10.4613 7.48771 9.24301H9.09925C9.09925 11.8906 5.88247 13.2262 4.00833 11.3517C2.13366 9.47701 3.46927 6.26058 6.11683 6.26058H38.8832C41.5304 6.26058 42.8663 9.47684 40.992 11.3517C39.1173 13.2262 35.9007 11.8907 35.9007 9.24301H37.5121Z" fill="white"/>
<path d="M63.24 25.5876H61.656V8.95559H63.24V25.5876ZM73.5384 25.5876V17.3076C73.5384 15.4116 72.3864 13.7316 70.7544 13.7316C69.0744 13.7316 67.8264 15.2676 67.8264 17.1156V25.5876H66.3144V13.4436H67.8264V15.6036C68.3784 14.1876 69.6264 13.2036 71.2584 13.2036C73.4904 13.2036 75.0504 14.9556 75.0504 17.1876V25.5876H73.5384ZM84.9759 25.5876V17.3076C84.9759 15.4116 83.8239 13.7316 82.1919 13.7316C80.5119 13.7316 79.2639 15.2676 79.2639 17.1156V25.5876H77.7519V13.4436H79.2639V15.6036C79.8159 14.1876 81.0639 13.2036 82.6959 13.2036C84.9279 13.2036 86.4879 14.9556 86.4879 17.1876V25.5876H84.9759ZM95.0214 25.8276C91.3974 25.8276 88.6614 23.2116 88.6614 19.5156C88.6614 15.8196 91.3974 13.2036 95.0214 13.2036C98.6214 13.2036 101.357 15.8196 101.357 19.5156C101.357 23.2116 98.6214 25.8276 95.0214 25.8276ZM95.0214 25.5156C97.7094 25.5156 99.7734 23.1396 99.7734 19.5156C99.7734 15.9876 97.7574 13.5156 95.0214 13.5156C92.3094 13.5156 90.2454 15.8916 90.2454 19.5156C90.2454 23.0436 92.2614 25.5156 95.0214 25.5156ZM102.199 13.4436H103.735L107.143 25.1316L110.455 13.4436H110.791L107.359 25.5876H105.751L102.199 13.4436ZM115.207 25.8276C113.023 25.8276 111.463 24.2916 111.463 22.2756C111.463 20.1396 113.023 18.5556 115.495 18.5556H118.423V16.3236C118.423 14.6196 117.439 13.5156 116.143 13.5156C114.967 13.5156 113.863 14.5956 113.863 16.3476V16.8996H112.303C112.303 14.7636 113.959 13.2036 116.143 13.2036C118.303 13.2036 119.959 14.7636 119.959 16.9476V25.5876H118.423V23.7876C117.895 25.0356 116.743 25.8276 115.207 25.8276ZM115.711 25.2996C117.223 25.2996 118.423 23.9556 118.423 22.1556V18.8676H116.095C114.151 18.8676 113.047 20.3076 113.047 22.2516C113.047 23.9796 114.151 25.2996 115.711 25.2996ZM124.842 25.5876H123.306V13.7556H121.866V13.4436H123.306V10.2996H124.842V13.4436H126.258V13.7556H124.842V25.5876ZM129.075 10.5876C128.451 10.5876 127.995 10.1076 127.995 9.50759C127.995 8.90758 128.451 8.45158 129.075 8.45158C129.675 8.45158 130.131 8.90758 130.131 9.50759C130.131 10.1076 129.675 10.5876 129.075 10.5876ZM129.819 25.5876H128.307V13.4436H129.819V25.5876ZM138.475 25.8276C134.851 25.8276 132.115 23.2116 132.115 19.5156C132.115 15.8196 134.851 13.2036 138.475 13.2036C142.075 13.2036 144.811 15.8196 144.811 19.5156C144.811 23.2116 142.075 25.8276 138.475 25.8276ZM138.475 25.5156C141.163 25.5156 143.227 23.1396 143.227 19.5156C143.227 15.9876 141.211 13.5156 138.475 13.5156C135.763 13.5156 133.699 15.8916 133.699 19.5156C133.699 23.0436 135.715 25.5156 138.475 25.5156ZM154.328 25.5876V17.3076C154.328 15.4116 153.176 13.7316 151.544 13.7316C149.864 13.7316 148.616 15.2676 148.616 17.1156V25.5876H147.104V13.4436H148.616V15.6036C149.168 14.1876 150.416 13.2036 152.048 13.2036C154.28 13.2036 155.84 14.9556 155.84 17.1876V25.5876H154.328ZM173.781 25.2756V25.5876H165.525V8.95559H167.109V25.2756H173.781ZM178.442 25.8276C176.258 25.8276 174.698 24.2916 174.698 22.2756C174.698 20.1396 176.258 18.5556 178.73 18.5556H181.658V16.3236C181.658 14.6196 180.674 13.5156 179.378 13.5156C178.202 13.5156 177.098 14.5956 177.098 16.3476V16.8996H175.538C175.538 14.7636 177.194 13.2036 179.378 13.2036C181.538 13.2036 183.194 14.7636 183.194 16.9476V25.5876H181.658V23.7876C181.13 25.0356 179.978 25.8276 178.442 25.8276ZM178.946 25.2996C180.458 25.2996 181.658 23.9556 181.658 22.1556V18.8676H179.33C177.386 18.8676 176.282 20.3076 176.282 22.2516C176.282 23.9796 177.386 25.2996 178.946 25.2996ZM184.699 13.4436H186.235L189.643 25.1316L191.275 19.4436L189.523 13.4436H191.059L192.187 17.2836L193.291 13.4436H193.627L192.355 17.9076L194.467 25.0836L197.827 13.4436H198.163L194.683 25.5876H193.075L191.467 20.0676L189.859 25.5876H188.251L184.699 13.4436Z" fill="white"/>
</svg>