<svg width="358" height="65" viewBox="0 0 358 65" fill="none" xmlns="http://www.w3.org/2000/svg">
<path d="M42.0947 9.15915C42.2217 9.14289 42.361 9.1398 42.5088 9.14954C42.6562 9.15925 42.8122 9.18174 42.9731 9.21675C43.1338 9.2517 43.2997 9.29918 43.4672 9.359C43.6347 9.41882 43.8041 9.49108 43.9717 9.57565C44.2247 9.70327 44.4505 9.84724 44.6428 9.9988C44.8361 10.1512 44.996 10.3118 45.1153 10.4713C45.2355 10.6322 45.3147 10.7923 45.3451 10.9422C45.3759 11.0936 45.3569 11.2346 45.2802 11.3552C45.2543 11.3959 45.2225 11.433 45.1854 11.4665C45.1483 11.5001 45.1058 11.53 45.0585 11.5562C45.0111 11.5825 44.9589 11.6052 44.9023 11.6241C44.8456 11.6431 44.7846 11.6584 44.7197 11.6699C44.591 11.6929 44.4473 11.7012 44.2928 11.6948C44.1379 11.6885 43.9723 11.6675 43.8002 11.6319C43.6278 11.5963 43.4493 11.5461 43.2688 11.4816C43.0884 11.4171 42.9064 11.3383 42.7273 11.2456C42.458 11.1064 42.2214 10.9495 42.0246 10.7854C41.829 10.6223 41.6733 10.4526 41.5637 10.2866C41.455 10.1219 41.3919 9.96107 41.3802 9.8138C41.3685 9.66795 41.4073 9.53549 41.5018 9.42562C41.5334 9.38903 41.5703 9.35611 41.6118 9.32679C41.6531 9.29756 41.6992 9.27192 41.7493 9.2498C41.7994 9.22774 41.8535 9.20918 41.9114 9.19408C41.969 9.17902 42.0303 9.16739 42.0947 9.15915Z" fill="#FF8530"/>
<path d="M49.8964 14.6332C49.9418 14.6217 49.9906 14.6132 50.0426 14.6079C50.0945 14.6026 50.1496 14.6005 50.2076 14.6017C50.2656 14.603 50.3266 14.6075 50.3903 14.6155C50.454 14.6235 50.5205 14.635 50.5896 14.6501C50.7935 14.6944 51.0012 14.7661 51.2027 14.8578C51.4044 14.9497 51.6005 15.062 51.7806 15.1875C51.9614 15.3135 52.1265 15.4531 52.2652 15.5992C52.4048 15.7463 52.5179 15.9001 52.5935 16.0533C52.644 16.1554 52.6749 16.2509 52.6873 16.3385C52.6998 16.4266 52.6936 16.5066 52.6702 16.5773C52.6467 16.6484 52.6058 16.7099 52.5488 16.7606C52.4916 16.8115 52.4182 16.8514 52.3301 16.8789C52.2848 16.893 52.2357 16.9039 52.183 16.9112C52.1301 16.9186 52.0736 16.9225 52.0136 16.9227C51.9536 16.923 51.8901 16.9195 51.8234 16.9122C51.7567 16.9049 51.6867 16.8937 51.6138 16.8785C51.3983 16.8335 51.1777 16.7575 50.9639 16.6587C50.7504 16.5601 50.5443 16.4391 50.357 16.3041C50.1706 16.1697 50.0033 16.0217 49.8663 15.8685C49.7302 15.7162 49.6242 15.559 49.559 15.405C49.5163 15.304 49.4939 15.2106 49.4899 15.126C49.4859 15.0419 49.5002 14.9664 49.531 14.9008C49.5617 14.8354 49.6087 14.7797 49.6703 14.7347C49.7316 14.6899 49.8075 14.6557 49.8964 14.6332Z" fill="#FF8530"/>
<path d="M55.3148 21.5097C55.3748 21.4837 55.44 21.4625 55.5102 21.4464C55.5802 21.4303 55.6551 21.4192 55.7347 21.4134C55.8142 21.4077 55.8985 21.4072 55.9873 21.4122C56.076 21.4173 56.1693 21.4278 56.267 21.4441C56.5738 21.4954 56.8962 21.599 57.2175 21.7429C57.5394 21.8869 57.8616 22.072 58.1672 22.2862C58.4746 22.5016 58.7663 22.7474 59.0245 23.0115C59.2851 23.2782 59.5125 23.5645 59.6876 23.8582C59.8083 24.0606 59.8965 24.2536 59.9534 24.4339C60.0107 24.6157 60.0363 24.7845 60.0312 24.9369C60.0261 25.0906 59.9899 25.2274 59.924 25.3439C59.8576 25.4612 59.7611 25.5578 59.636 25.6298C59.5775 25.6635 59.5128 25.6918 59.4421 25.7144C59.3711 25.7371 59.2941 25.7539 59.2113 25.7646C59.1283 25.7753 59.0394 25.7799 58.9449 25.7779C58.8502 25.7759 58.7499 25.7673 58.6442 25.7518C58.3107 25.703 57.9563 25.5902 57.6021 25.4284C57.2486 25.2669 56.8971 25.0573 56.5683 24.8151C56.2417 24.5745 55.9389 24.3026 55.6795 24.0147C55.4227 23.7298 55.2093 23.43 55.0577 23.13C54.9554 22.9276 54.8879 22.7383 54.8526 22.5648C54.8175 22.3928 54.8141 22.2364 54.8398 22.0982C54.8652 21.961 54.9193 21.8416 54.9997 21.7426C55.0795 21.6442 55.1852 21.5657 55.3148 21.5097Z" fill="#FF8530"/>
<path d="M34.038 6.28787C34.0922 6.28407 34.1486 6.2826 34.207 6.28354C34.2654 6.28448 34.3257 6.28781 34.3876 6.29363C34.4495 6.29944 34.5131 6.30772 34.5781 6.31857C34.643 6.3294 34.7094 6.34279 34.7769 6.35882C34.9757 6.40609 35.1659 6.47195 35.3402 6.5507C35.5146 6.62954 35.6735 6.72151 35.8089 6.82092C35.9448 6.9207 36.0574 7.0282 36.1386 7.13767C36.2203 7.24776 36.2704 7.36005 36.2803 7.46863C36.2868 7.54075 36.2751 7.60675 36.2474 7.6659C36.2195 7.72532 36.1754 7.7778 36.1171 7.82256C36.0585 7.86752 35.9857 7.90467 35.9008 7.93321C35.8156 7.96187 35.7182 7.98184 35.6108 7.99231C35.5557 7.9977 35.4979 8.00057 35.4379 8.00083C35.3777 8.0011 35.3153 7.99873 35.2509 7.99365C35.1865 7.98855 35.12 7.98073 35.052 7.97007C34.9839 7.9594 34.9141 7.9459 34.8431 7.92946C34.6329 7.88089 34.4317 7.8114 34.2482 7.72746C34.0649 7.64363 33.8998 7.54562 33.7613 7.43994C33.6233 7.33467 33.5121 7.22203 33.4356 7.10845C33.3597 6.99553 33.3182 6.88188 33.3191 6.77373C33.3199 6.70277 33.3389 6.63863 33.3736 6.58192C33.4082 6.52548 33.4583 6.47638 33.5216 6.4352C33.5847 6.3942 33.6609 6.36104 33.7479 6.33628C33.8345 6.31162 33.932 6.29529 34.038 6.28787Z" fill="#FF8530"/>
<path d="M24.8911 5.54981C25.1789 5.53485 25.4751 5.55363 25.765 5.60022C26.0538 5.64665 26.3374 5.72086 26.6012 5.8173C26.865 5.91375 27.11 6.03281 27.3213 6.16916C27.5334 6.30606 27.7124 6.46092 27.8427 6.62855C27.9739 6.79774 28.0436 6.96442 28.0566 7.1213C28.0697 7.27971 28.0251 7.42833 27.9276 7.55933C27.829 7.6917 27.6764 7.80608 27.4749 7.89414C27.2714 7.98308 27.0182 8.04508 26.7214 8.07149C26.4214 8.0976 26.1069 8.08506 25.7954 8.03973C25.4828 7.99423 25.1745 7.91587 24.8884 7.81102C24.6024 7.7062 24.3398 7.57532 24.118 7.42505C23.8971 7.27543 23.7177 7.1072 23.5965 6.92715C23.4763 6.74821 23.4252 6.57507 23.435 6.41548C23.4447 6.25748 23.5141 6.11294 23.6351 5.98903C23.7548 5.86641 23.925 5.76399 24.138 5.68851C24.349 5.61376 24.6023 5.56534 24.8911 5.54981Z" fill="#FF8530"/>
<path d="M38.7516 11.5922C38.9792 11.5558 39.2253 11.543 39.4834 11.5534C39.7401 11.5638 40.0093 11.5972 40.2848 11.6532C40.5595 11.709 40.8411 11.7875 41.1235 11.8885C41.406 11.9896 41.6902 12.1134 41.97 12.2602C42.3928 12.4821 42.768 12.7365 43.0855 13.008C43.4062 13.2822 43.6697 13.5751 43.8642 13.8705C44.0614 14.1701 44.1883 14.4732 44.2315 14.7623C44.2754 15.0561 44.2328 15.3359 44.0891 15.5822C44.0404 15.6658 43.9815 15.7428 43.9133 15.8132C43.8447 15.884 43.7668 15.9481 43.6805 16.0054C43.5936 16.0629 43.4983 16.1136 43.3953 16.1573C43.2919 16.2012 43.1808 16.238 43.063 16.2677C42.8284 16.3268 42.5675 16.3575 42.2879 16.3595C42.0068 16.3614 41.7073 16.3343 41.3975 16.2778C41.0868 16.2212 40.7666 16.1352 40.445 16.02C40.1235 15.9048 39.8017 15.7607 39.488 15.5881C39.0178 15.3296 38.6127 15.0332 38.2843 14.7202C37.9594 14.4106 37.7111 14.0865 37.5483 13.768C37.3879 13.4542 37.3109 13.1468 37.3248 12.8643C37.3386 12.5865 37.4401 12.333 37.6364 12.1207C37.7016 12.0502 37.7751 11.9864 37.856 11.9292C37.9366 11.8723 38.0245 11.822 38.1189 11.7782C38.2129 11.7345 38.3133 11.6972 38.4193 11.6662C38.5248 11.6354 38.6358 11.6107 38.7516 11.5922Z" fill="#FF8530"/>
<path d="M27.6832 9.47902C28.1399 9.43002 28.6132 9.44308 29.0797 9.50799C29.5435 9.57252 30.0034 9.6887 30.4364 9.84746C30.8695 10.0063 31.2783 10.2087 31.639 10.4464C32.002 10.6858 32.3187 10.9624 32.5638 11.2686C32.8122 11.5794 32.9646 11.8926 33.0261 12.1941C33.0887 12.5006 33.0576 12.7955 32.9374 13.0632C32.815 13.3355 32.6004 13.5796 32.2987 13.7778C31.9919 13.9794 31.5957 14.133 31.1172 14.22C30.6301 14.3076 30.1083 14.3181 29.583 14.2608C29.0541 14.2031 28.5254 14.0772 28.029 13.8943C27.5328 13.7115 27.0724 13.4729 26.6789 13.1911C26.2884 12.9113 25.9666 12.5908 25.7425 12.2425C25.5216 11.8985 25.4178 11.5615 25.4175 11.2477C25.4171 10.9393 25.5167 10.6537 25.7026 10.4056C25.8852 10.1617 26.1513 9.95386 26.4885 9.79493C26.8204 9.6385 27.2221 9.52911 27.6832 9.47902Z" fill="#FF8530"/>
<path d="M16.3163 7.95378C16.5934 7.93298 16.8705 7.94346 17.135 7.98007C17.3986 8.01655 17.6506 8.07912 17.8783 8.16289C18.1059 8.24669 18.31 8.35198 18.4776 8.47412C18.6457 8.59669 18.7776 8.73662 18.8599 8.88939C18.9427 9.04323 18.9674 9.19599 18.9405 9.34075C18.9133 9.48674 18.8338 9.62475 18.7085 9.74745C18.582 9.87126 18.4091 9.97948 18.1967 10.0644C17.9825 10.15 17.7284 10.2118 17.4422 10.2419C17.153 10.2717 16.8596 10.2666 16.5772 10.2314C16.2938 10.1962 16.0225 10.1308 15.7783 10.0408C15.5341 9.95084 15.318 9.8365 15.1448 9.70347C14.9723 9.57093 14.8429 9.42029 14.7709 9.25732C14.6991 9.09564 14.6908 8.93748 14.7367 8.79017C14.7822 8.64412 14.8809 8.50889 15.0236 8.39137C15.1651 8.2749 15.3498 8.17582 15.5691 8.10066C15.7866 8.02613 16.0383 7.97505 16.3163 7.95378Z" fill="#FF8530"/>
<path d="M45.6556 19.396C45.769 19.3597 45.8891 19.3307 46.0153 19.3093C46.1411 19.288 46.2731 19.2743 46.4108 19.2684C46.5481 19.2626 46.6912 19.2646 46.8397 19.2749C46.9879 19.2851 47.1415 19.3035 47.3003 19.3305C47.7982 19.4151 48.302 19.5767 48.7891 19.7972C49.2775 20.0183 49.7527 20.3001 50.1909 20.6254C50.6332 20.9536 51.0406 21.3282 51.3874 21.7314C51.7394 22.1408 52.0309 22.582 52.2333 23.0366C52.3738 23.3519 52.4626 23.6538 52.5024 23.937C52.5428 24.224 52.5328 24.4917 52.4755 24.7345C52.4175 24.9805 52.3108 25.2006 52.1588 25.3888C52.005 25.5792 51.805 25.7367 51.5625 25.8548C51.4488 25.9103 51.3258 25.957 51.194 25.9944C51.0617 26.0319 50.9206 26.06 50.7711 26.0781C50.6211 26.0962 50.4628 26.1041 50.2967 26.1013C50.1302 26.0985 49.956 26.0848 49.7747 26.0598C49.2017 25.9806 48.615 25.7955 48.048 25.5296C47.4828 25.2645 46.9419 24.9212 46.4568 24.5259C45.9768 24.1348 45.5548 23.6954 45.2192 23.2334C44.8892 22.779 44.6445 22.305 44.5106 21.8354C44.4208 21.5206 44.3867 21.2283 44.402 20.9624C44.4171 20.7002 44.4803 20.4636 44.5858 20.2563C44.6899 20.0515 44.8353 19.875 45.0165 19.7302C45.1958 19.5869 45.4104 19.4744 45.6556 19.396Z" fill="#FF8530"/>
<path d="M32.8022 15.9383C33.2321 15.8482 33.6863 15.8033 34.1537 15.8027C34.6169 15.8021 35.0949 15.8451 35.577 15.9313C36.0569 16.0172 36.543 16.1464 37.0251 16.3193C37.5073 16.4921 37.9879 16.7095 38.457 16.9725C39.1678 17.3711 39.7911 17.8403 40.313 18.3522C40.844 18.8731 41.2744 19.4426 41.5849 20.0305C41.9031 20.6329 42.0973 21.2582 42.1432 21.8719C42.1905 22.5038 42.0807 23.1255 41.7856 23.6962C41.6844 23.8919 41.5647 24.0752 41.4279 24.2459C41.2897 24.4183 41.1342 24.5775 40.9629 24.7231C40.79 24.8701 40.6012 25.0031 40.3982 25.1218C40.1935 25.2414 39.9745 25.3462 39.7429 25.4358C39.2797 25.6152 38.7679 25.7331 38.2224 25.7867C37.6712 25.8408 37.0882 25.8289 36.49 25.7487C35.8884 25.6681 35.2748 25.5189 34.6665 25.3C34.0584 25.0811 33.4594 24.7939 32.8874 24.4388C32.0335 23.9083 31.3297 23.2824 30.7915 22.6125C30.2643 21.9562 29.9008 21.2635 29.7087 20.5802C29.5217 19.9154 29.4981 19.2629 29.6413 18.6615C29.7803 18.0781 30.0762 17.5437 30.5324 17.091C30.6825 16.9421 30.8453 16.8065 31.0191 16.6843C31.1912 16.5631 31.3742 16.4548 31.5663 16.3592C31.7569 16.2644 31.9566 16.1819 32.1638 16.1117C32.3695 16.042 32.5829 15.9842 32.8022 15.9383Z" fill="#FF8530"/>
<path d="M19.6886 14.8886C19.8755 14.8582 20.0659 14.8352 20.2589 14.8201C20.4511 14.8051 20.6461 14.7978 20.8429 14.7986C21.0391 14.7994 21.2372 14.8082 21.4365 14.8254C21.6353 14.8426 21.8353 14.8681 22.0358 14.9023C22.6645 15.0095 23.2421 15.1929 23.7516 15.4337C24.2626 15.6752 24.7093 15.9763 25.0718 16.3191C25.4382 16.6655 25.7213 17.0568 25.8984 17.4748C26.0786 17.8999 26.1504 18.3553 26.0876 18.8215C26.0441 19.1454 25.9385 19.4539 25.7784 19.742C25.6158 20.0347 25.3971 20.3061 25.1304 20.5506C24.8598 20.7988 24.5402 21.019 24.1806 21.2051C23.8162 21.3937 23.4114 21.5469 22.9766 21.6583C22.7724 21.7106 22.5617 21.7536 22.3457 21.7867C22.1287 21.82 21.9064 21.8432 21.6801 21.8557C21.4529 21.8683 21.2218 21.8701 20.988 21.8605C20.7534 21.8509 20.5164 21.8298 20.2781 21.7967C19.5249 21.6919 18.8355 21.4776 18.2386 21.1808C17.6438 20.8852 17.1465 20.5104 16.7709 20.0853C16.3998 19.6653 16.1505 19.1992 16.043 18.7149C15.9374 18.2395 15.969 17.7494 16.154 17.2698C16.278 16.9491 16.4626 16.6541 16.6955 16.3884C16.9248 16.1269 17.2012 15.8936 17.5134 15.6919C17.8212 15.4929 18.1643 15.3244 18.5323 15.1892C18.8958 15.0557 19.2844 14.9545 19.6886 14.8886Z" fill="#FF8530"/>
<path d="M57.5279 31.731C57.7068 31.6081 57.9296 31.5498 58.1797 31.5491C58.4288 31.5485 58.706 31.6049 58.9951 31.7122C59.2843 31.8195 59.5866 31.978 59.886 32.1821C60.1866 32.387 60.4856 32.6388 60.7665 32.9321C61.0503 33.2285 61.2895 33.54 61.4791 33.8505C61.6707 34.1644 61.8119 34.4776 61.8968 34.7729C61.9828 35.0716 62.0113 35.3519 61.9762 35.5955C61.9407 35.8417 61.8403 36.05 61.669 36.201C61.4952 36.3526 61.2666 36.4309 61.0021 36.442C60.7366 36.4532 60.4359 36.3964 60.1198 36.2787C59.8038 36.161 59.4737 35.983 59.1492 35.7522C58.8262 35.5226 58.5102 35.2417 58.2205 34.9181C57.9332 34.5966 57.6999 34.2645 57.5238 33.94C57.3497 33.6191 57.2318 33.3061 57.1727 33.0179C57.1144 32.7331 57.1136 32.4725 57.1728 32.2523C57.2314 32.0343 57.3488 31.8555 57.5279 31.731Z" fill="#FF8530"/>
<path d="M41.5104 28.269C42.0317 28.0365 42.6068 27.9356 43.2025 27.9495C43.7932 27.9633 44.4094 28.0902 45.019 28.3169C45.629 28.5437 46.2377 28.8724 46.8129 29.2924C47.3935 29.7164 47.9453 30.2371 48.4342 30.8462C48.933 31.4671 49.3226 32.1252 49.5991 32.7879C49.882 33.4661 50.0474 34.1514 50.0887 34.8062C50.131 35.4777 50.0427 36.1175 49.8165 36.6818C49.5847 37.2601 49.2087 37.7576 48.6828 38.1254C48.1433 38.4996 47.5044 38.7 46.8126 38.7374C46.1138 38.7751 45.3683 38.6462 44.6255 38.367C43.8831 38.088 43.1513 37.6618 42.4791 37.1097C41.8143 36.5636 41.2145 35.8999 40.7251 35.1424C40.2447 34.3997 39.9191 33.6418 39.7388 32.9119C39.563 32.1998 39.5258 31.5158 39.6169 30.8966C39.7057 30.2928 39.9165 29.7501 40.2401 29.2999C40.5566 28.8598 40.982 28.5067 41.5104 28.269Z" fill="#FF8530"/>
<path d="M25.9885 25.8058C26.4212 25.6667 26.8708 25.5773 27.3262 25.5378C27.778 25.4986 28.2372 25.5083 28.6934 25.5676C29.1477 25.6266 29.6009 25.735 30.0428 25.894C30.4847 26.0531 30.9174 26.2634 31.3309 26.5271C31.9569 26.927 32.4845 27.4148 32.9047 27.9593C33.3316 28.5125 33.651 29.1283 33.8495 29.7735C34.0525 30.4333 34.1301 31.1273 34.0654 31.8179C33.9989 32.5273 33.7821 33.2352 33.3953 33.898C33.2628 34.1247 33.1148 34.3388 32.9526 34.5397C32.7889 34.7424 32.611 34.9317 32.4203 35.1068C32.2281 35.2833 32.0232 35.4454 31.8072 35.5923C31.5895 35.7404 31.3609 35.8729 31.123 35.9895C30.6475 36.2224 30.1364 36.3906 29.6045 36.4898C29.0675 36.59 28.5116 36.6194 27.9528 36.5745C27.3912 36.5294 26.8294 36.4095 26.284 36.2122C25.7388 36.0149 25.2129 35.7415 24.7232 35.3906C23.9906 34.866 23.415 34.2235 23.0035 33.5181C22.5996 32.8258 22.3571 32.0785 22.2767 31.3268C22.1982 30.5935 22.2745 29.8593 22.5039 29.1678C22.7269 28.4951 23.0945 27.8639 23.6053 27.3113C23.7737 27.1291 23.9524 26.9611 24.1397 26.8072C24.3255 26.6546 24.5199 26.5157 24.7212 26.3905C24.9211 26.2662 25.128 26.1553 25.3404 26.0576C25.5513 25.9607 25.7679 25.8767 25.9885 25.8058Z" fill="#FF8530"/>
<path d="M8.83313 13.7968C8.98278 13.7771 9.13396 13.7625 9.28589 13.7533C9.4374 13.7442 9.58972 13.7404 9.74211 13.7422C9.89415 13.744 10.0463 13.7514 10.1979 13.7646C10.3492 13.7777 10.5 13.7967 10.6496 13.8217C11.119 13.9001 11.5338 14.031 11.8837 14.201C12.2343 14.3713 12.5216 14.5818 12.7339 14.8196C12.9477 15.0592 13.0863 15.3276 13.1362 15.6117C13.1867 15.8993 13.1466 16.2041 13.0006 16.5124C12.8997 16.7256 12.7547 16.9269 12.5728 17.1132C12.3889 17.3014 12.1674 17.4742 11.9159 17.6281C11.6619 17.7836 11.3775 17.9197 11.0709 18.0328C10.7614 18.1469 10.4298 18.2375 10.0848 18.3007C9.92317 18.3303 9.75874 18.3539 9.59239 18.3711C9.42553 18.3883 9.25682 18.3992 9.08722 18.4032C8.91717 18.4072 8.74632 18.4044 8.57564 18.3944C8.40461 18.3844 8.23385 18.3672 8.06436 18.3423C7.52936 18.264 7.06008 18.118 6.67174 17.9218C6.28431 17.7261 5.97987 17.4816 5.77143 17.2061C5.56468 16.9328 5.45345 16.6304 5.44865 16.3165C5.44391 16.0065 5.54293 15.6865 5.75494 15.3728C5.89762 15.1617 6.08225 14.9673 6.29939 14.792C6.51421 14.6185 6.76098 14.4637 7.03075 14.3298C7.29786 14.1972 7.5878 14.0849 7.89214 13.9953C8.19386 13.9064 8.51017 13.8395 8.83313 13.7968Z" fill="#FF8530"/>
<path d="M6.8952 25.7568C7.04856 25.7175 7.20328 25.6851 7.35845 25.66C7.51319 25.6349 7.66845 25.617 7.82334 25.6067C7.97787 25.5965 8.13211 25.5937 8.28518 25.599C8.43799 25.6042 8.58973 25.6173 8.73953 25.6388C9.18079 25.7025 9.56505 25.8327 9.88356 26.0141C10.2028 26.196 10.4577 26.4304 10.638 26.7025C10.8196 26.9765 10.9263 27.2901 10.9464 27.6282C10.9667 27.9701 10.8985 28.3386 10.7285 28.7178C10.6152 28.9713 10.4634 29.2138 10.2798 29.4417C10.0944 29.6718 9.87665 29.8867 9.63349 30.0824C9.38807 30.2799 9.11695 30.4576 8.82751 30.6112C8.53566 30.7661 8.22554 30.8962 7.90497 30.9971C7.73976 31.0491 7.5719 31.0933 7.40248 31.1291C7.23254 31.165 7.06111 31.1925 6.88932 31.2109C6.71709 31.2293 6.5446 31.2386 6.37298 31.2382C6.20103 31.2378 6.03008 31.2276 5.86127 31.2071C5.362 31.1465 4.93142 31.0014 4.58213 30.7917C4.23379 30.5826 3.96835 30.3104 3.79635 29.9956C3.62573 29.6832 3.54788 29.3303 3.57153 28.957C3.59489 28.5882 3.71721 28.2007 3.94585 27.8136C4.09506 27.5605 4.28023 27.3235 4.49307 27.1057C4.70384 26.8901 4.94185 26.6932 5.19923 26.5181C5.4543 26.3446 5.72863 26.1924 6.01475 26.0643C6.29862 25.9372 6.59447 25.8337 6.8952 25.7568Z" fill="#FF8530"/>
<path d="M17.157 50.5667C19.6831 50.5667 21.7308 48.519 21.7308 45.9929C21.7308 43.4669 19.6831 41.4191 17.157 41.4191C14.631 41.4191 12.5833 43.4669 12.5833 45.9929C12.5833 48.519 14.631 50.5667 17.157 50.5667Z" fill="#FF8530"/>
<path d="M58.4644 46.0307C57.156 43.8699 54.7985 42.9034 53.1987 43.8721C51.599 44.8408 51.3627 47.3777 52.6711 49.5385C53.9794 51.6993 56.3369 52.6657 57.9367 51.6971C59.5365 50.7284 59.7728 48.1915 58.4644 46.0307Z" fill="#FF8530"/>
<path d="M38.5327 57.4241C40.6817 57.3427 42.3453 55.2027 42.2483 52.6444C42.1513 50.086 40.3306 48.0781 38.1816 48.1595C36.0326 48.241 34.3691 50.3809 34.4661 52.9393C34.563 55.4976 36.3837 57.5055 38.5327 57.4241Z" fill="#FF8530"/>
<path d="M90.7578 11.6797L88.2266 11.6094C88.2109 11.7266 88.1953 11.9648 88.1797 12.3242C88.1641 12.6758 88.1445 13.207 88.1211 13.918C88.0977 14.6289 88.0703 15.543 88.0391 16.6602C88.0078 17.7773 87.9766 19.1602 87.9453 20.8086L95.8203 11.6328L92.3398 11.5859V11.1523L99.7578 11.2578V11.6797L96.3945 11.6562L92.1172 16.625L98.8438 27.1133L100.766 27.0898V27.5234L91.7656 27.6641V27.2305L93.6758 27.207L89.2344 19.9648L87.9219 21.5234C87.8984 22.3516 87.8789 23.2305 87.8633 24.1602C87.8477 25.082 87.8359 26.1055 87.8281 27.2305H90.3477V27.6641H80.668V27.2305H83.4336L83.5039 11.4922L80.5039 11.3984V10.9648L90.7578 11.2578V11.6797ZM108.723 18.1602C109.934 18.293 110.961 18.5156 111.805 18.8281C112.648 19.1406 113.332 19.5156 113.855 19.9531C114.387 20.3828 114.77 20.8633 115.004 21.3945C115.246 21.918 115.367 22.4648 115.367 23.0352C115.367 23.6914 115.262 24.2695 115.051 24.7695C114.84 25.2695 114.559 25.7109 114.207 26.0938C113.863 26.4688 113.465 26.7852 113.012 27.043C112.566 27.3008 112.105 27.5078 111.629 27.6641C111.16 27.8281 110.695 27.9453 110.234 28.0156C109.773 28.0938 109.359 28.1367 108.992 28.1445H108.699C108.309 28.1367 107.859 28.1016 107.352 28.0391C106.852 27.9844 106.336 27.8945 105.805 27.7695C105.281 27.6445 104.766 27.4844 104.258 27.2891C103.75 27.0859 103.297 26.8359 102.898 26.5391C102.5 26.2422 102.18 25.8906 101.938 25.4844C101.695 25.0781 101.574 24.6055 101.574 24.0664C101.574 23.7773 101.621 23.5234 101.715 23.3047C101.809 23.0859 101.938 22.9023 102.102 22.7539C102.266 22.5977 102.453 22.4766 102.664 22.3906C102.883 22.3047 103.117 22.2539 103.367 22.2383C103.672 22.2383 103.953 22.3047 104.211 22.4375C104.477 22.5625 104.707 22.7422 104.902 22.9766C105.098 23.2031 105.254 23.4805 105.371 23.8086C105.496 24.1289 105.566 24.4883 105.582 24.8867C105.598 25.207 105.672 25.5352 105.805 25.8711C105.938 26.207 106.133 26.5117 106.391 26.7852C106.648 27.0586 106.969 27.2812 107.352 27.4531C107.734 27.625 108.184 27.7109 108.699 27.7109C109.105 27.7109 109.473 27.6289 109.801 27.4648C110.137 27.3008 110.422 27.082 110.656 26.8086C110.891 26.5352 111.07 26.2188 111.195 25.8594C111.32 25.4922 111.383 25.1094 111.383 24.7109C111.383 24.3516 111.32 23.9961 111.195 23.6445C111.07 23.293 110.875 22.9805 110.609 22.707C110.344 22.4258 110.004 22.1953 109.59 22.0156C109.176 21.8359 108.68 21.7344 108.102 21.7109C106.922 21.6562 105.914 21.4805 105.078 21.1836C104.25 20.8867 103.57 20.5039 103.039 20.0352C102.508 19.5586 102.117 19.0156 101.867 18.4062C101.625 17.7969 101.504 17.1562 101.504 16.4844C101.504 15.7578 101.613 15.1211 101.832 14.5742C102.051 14.0195 102.34 13.543 102.699 13.1445C103.066 12.7383 103.484 12.4023 103.953 12.1367C104.422 11.8633 104.906 11.6445 105.406 11.4805C105.914 11.3164 106.414 11.2031 106.906 11.1406C107.406 11.0703 107.867 11.0352 108.289 11.0352H108.43C108.82 11.043 109.254 11.0781 109.73 11.1406C110.215 11.1953 110.703 11.2852 111.195 11.4102C111.695 11.5352 112.176 11.6992 112.637 11.9023C113.105 12.1055 113.52 12.3555 113.879 12.6523C114.246 12.9492 114.539 13.3008 114.758 13.707C114.977 14.1055 115.086 14.5664 115.086 15.0898C115.086 15.3945 115.035 15.6602 114.934 15.8867C114.832 16.1133 114.695 16.3047 114.523 16.4609C114.359 16.6094 114.164 16.7227 113.938 16.8008C113.711 16.8789 113.477 16.918 113.234 16.918C112.938 16.918 112.66 16.8516 112.402 16.7188C112.145 16.5859 111.918 16.4023 111.723 16.168C111.535 15.9336 111.383 15.6562 111.266 15.3359C111.156 15.0078 111.102 14.6484 111.102 14.2578C111.102 13.9219 111.059 13.5898 110.973 13.2617C110.887 12.9336 110.738 12.6406 110.527 12.3828C110.324 12.1172 110.051 11.9023 109.707 11.7383C109.363 11.5742 108.938 11.4844 108.43 11.4688H108.312C107.93 11.4844 107.574 11.5977 107.246 11.8086C106.926 12.0117 106.648 12.2812 106.414 12.6172C106.18 12.9531 105.996 13.332 105.863 13.7539C105.738 14.168 105.676 14.5898 105.676 15.0195C105.676 15.3945 105.73 15.7578 105.84 16.1094C105.957 16.4609 106.137 16.7812 106.379 17.0703C106.629 17.3516 106.945 17.5898 107.328 17.7852C107.711 17.9805 108.176 18.1055 108.723 18.1602ZM123.395 27.5703V27.1367H126.16L126.23 11.3984L123.207 11.3047V10.8711L133.449 11.1523V11.5859L130.953 11.5156C130.945 11.6172 130.934 11.7969 130.918 12.0547C130.902 12.3125 130.887 12.6914 130.871 13.1914C130.855 13.6836 130.832 14.3125 130.801 15.0781C130.777 15.8438 130.754 16.7891 130.73 17.9141C130.707 19.0391 130.68 20.3594 130.648 21.875C130.617 23.3906 130.586 25.1445 130.555 27.1367H132.898C133.07 27.1367 133.301 27.1055 133.59 27.043C133.887 26.9727 134.203 26.8477 134.539 26.668C134.883 26.4883 135.23 26.2422 135.582 25.9297C135.934 25.6172 136.254 25.2109 136.543 24.7109C136.832 24.2109 137.074 23.6094 137.27 22.9062C137.465 22.2031 137.578 21.375 137.609 20.4219H138.043L137.844 27.5703C137.195 27.5703 136.617 27.5703 136.109 27.5703C135.609 27.5703 135.141 27.5703 134.703 27.5703C134.266 27.5703 133.844 27.5703 133.438 27.5703C133.031 27.5781 132.602 27.582 132.148 27.582C131.695 27.582 131.199 27.582 130.66 27.582C130.121 27.582 129.504 27.582 128.809 27.582C128.121 27.582 127.336 27.5781 126.453 27.5703C125.57 27.5703 124.551 27.5703 123.395 27.5703ZM149.129 21.6172C149.129 22.0312 148.996 22.4062 148.73 22.7422C148.465 23.0703 148.121 23.3516 147.699 23.5859C147.285 23.8203 146.82 24.0078 146.305 24.1484C145.797 24.2812 145.297 24.3516 144.805 24.3594C144.773 24.3594 144.703 24.3555 144.594 24.3477C144.484 24.3398 144.352 24.3164 144.195 24.2773C144.039 24.2305 143.863 24.1602 143.668 24.0664C143.473 23.9727 143.277 23.8359 143.082 23.6562C143.105 24.3516 143.168 24.9492 143.27 25.4492C143.379 25.9414 143.52 26.3477 143.691 26.668C143.871 26.9805 144.078 27.2109 144.312 27.3594C144.555 27.5 144.816 27.5703 145.098 27.5703C145.262 27.5703 145.48 27.5156 145.754 27.4062C146.035 27.2969 146.324 27.1289 146.621 26.9023C146.926 26.6758 147.223 26.3867 147.512 26.0352C147.801 25.6836 148.043 25.2617 148.238 24.7695L148.578 23.9023L149 24.043L148.812 24.5703C148.641 25.0312 148.414 25.4688 148.133 25.8828C147.852 26.2969 147.523 26.668 147.148 26.9961C146.781 27.3164 146.371 27.5742 145.918 27.7695C145.465 27.9727 144.98 28.0898 144.465 28.1211C143.566 28.0898 142.805 27.9297 142.18 27.6406C141.555 27.3516 141.047 26.9844 140.656 26.5391C140.266 26.0938 139.98 25.5977 139.801 25.0508C139.629 24.5039 139.543 23.9531 139.543 23.3984C139.543 23.0312 139.598 22.6328 139.707 22.2031C139.824 21.7656 139.992 21.3281 140.211 20.8906C140.43 20.4453 140.695 20.0156 141.008 19.6016C141.328 19.1875 141.688 18.8203 142.086 18.5C142.492 18.1797 142.934 17.9258 143.41 17.7383C143.895 17.543 144.414 17.4453 144.969 17.4453C145.477 17.4609 145.93 17.5391 146.328 17.6797C146.734 17.8125 147.09 17.9922 147.395 18.2188C147.707 18.4375 147.973 18.6875 148.191 18.9688C148.41 19.25 148.59 19.543 148.73 19.8477C148.871 20.1445 148.973 20.4492 149.035 20.7617C149.098 21.0664 149.129 21.3516 149.129 21.6172ZM144.781 17.8789C144.531 17.8945 144.297 18.0352 144.078 18.3008C143.867 18.5664 143.684 18.9297 143.527 19.3906C143.379 19.8438 143.262 20.3789 143.176 20.9961C143.09 21.6133 143.047 22.2773 143.047 22.9883C143.242 23.2148 143.438 23.3906 143.633 23.5156C143.828 23.6406 144.008 23.7344 144.172 23.7969C144.336 23.8516 144.473 23.8867 144.582 23.9023C144.691 23.918 144.758 23.9258 144.781 23.9258C145.086 23.918 145.336 23.8516 145.531 23.7266C145.734 23.6016 145.891 23.4297 146 23.2109C146.117 22.9922 146.199 22.7305 146.246 22.4258C146.293 22.1211 146.316 21.7812 146.316 21.4062C146.316 20.9375 146.285 20.4922 146.223 20.0703C146.168 19.6406 146.078 19.2656 145.953 18.9453C145.836 18.6172 145.68 18.3594 145.484 18.1719C145.289 17.9766 145.055 17.8789 144.781 17.8789ZM155.34 17.4688C155.848 17.4688 156.305 17.5938 156.711 17.8438C157.125 18.0859 157.508 18.4258 157.859 18.8633V17.8555H162.945V18.3125H161.316V27.9102C161.316 28.957 161.145 29.8672 160.801 30.6406C160.465 31.4141 160.027 32.0547 159.488 32.5625C158.949 33.0781 158.344 33.4609 157.672 33.7109C157 33.9688 156.336 34.0977 155.68 34.0977C155.102 34.0977 154.523 34.0352 153.945 33.9102C153.367 33.793 152.848 33.6016 152.387 33.3359C151.926 33.0781 151.551 32.7461 151.262 32.3398C150.973 31.9336 150.828 31.4414 150.828 30.8633C150.828 30.6211 150.863 30.3828 150.934 30.1484C151.012 29.9219 151.125 29.7188 151.273 29.5391C151.43 29.3594 151.625 29.2148 151.859 29.1055C152.094 28.9961 152.375 28.9414 152.703 28.9414C152.992 28.9414 153.238 29 153.441 29.1172C153.652 29.2422 153.824 29.3984 153.957 29.5859C154.09 29.7734 154.184 29.9805 154.238 30.207C154.301 30.4414 154.332 30.668 154.332 30.8867C154.332 31.0898 154.312 31.2812 154.273 31.4609C154.234 31.6484 154.215 31.832 154.215 32.0117C154.215 32.2148 154.234 32.4141 154.273 32.6094C154.32 32.8047 154.395 32.9766 154.496 33.125C154.605 33.2812 154.746 33.4062 154.918 33.5C155.09 33.6016 155.309 33.6562 155.574 33.6641C155.973 33.6328 156.312 33.4844 156.594 33.2188C156.883 32.9531 157.121 32.6094 157.309 32.1875C157.496 31.7656 157.633 31.2852 157.719 30.7461C157.812 30.207 157.859 29.6523 157.859 29.082V26.7266C157.859 26.8672 157.793 27.0195 157.66 27.1836C157.527 27.3477 157.348 27.5 157.121 27.6406C156.902 27.7891 156.648 27.9141 156.359 28.0156C156.07 28.1172 155.77 28.1758 155.457 28.1914C154.848 28.1914 154.305 28.1133 153.828 27.957C153.359 27.8008 152.945 27.5938 152.586 27.3359C152.234 27.0703 151.938 26.7656 151.695 26.4219C151.453 26.0703 151.258 25.7031 151.109 25.3203C150.961 24.9297 150.852 24.5312 150.781 24.125C150.719 23.7188 150.688 23.332 150.688 22.9648C150.688 22.707 150.723 22.3906 150.793 22.0156C150.863 21.6406 150.973 21.25 151.121 20.8438C151.277 20.4375 151.477 20.0352 151.719 19.6367C151.961 19.2305 152.254 18.8672 152.598 18.5469C152.941 18.2266 153.34 17.9688 153.793 17.7734C154.246 17.5703 154.762 17.4688 155.34 17.4688ZM157.859 19.7422C157.641 19.2578 157.379 18.8906 157.074 18.6406C156.77 18.3828 156.48 18.1992 156.207 18.0898C156.09 18.0898 155.961 18.1211 155.82 18.1836C155.688 18.2461 155.551 18.3516 155.41 18.5C155.277 18.6484 155.145 18.8516 155.012 19.1094C154.887 19.3672 154.773 19.6953 154.672 20.0938C154.578 20.4844 154.5 20.9531 154.438 21.5C154.383 22.0391 154.355 22.6719 154.355 23.3984C154.355 24.1875 154.406 24.8477 154.508 25.3789C154.617 25.9102 154.758 26.3359 154.93 26.6562C155.109 26.9688 155.309 27.1914 155.527 27.3242C155.754 27.457 155.98 27.5234 156.207 27.5234C156.387 27.5234 156.57 27.4688 156.758 27.3594C156.945 27.25 157.117 27.0859 157.273 26.8672C157.43 26.6484 157.559 26.3789 157.66 26.0586C157.762 25.7305 157.812 25.3555 157.812 24.9336C157.812 24.9023 157.812 24.8633 157.812 24.8164C157.812 24.7695 157.812 24.6875 157.812 24.5703C157.812 24.4531 157.812 24.2852 157.812 24.0664C157.82 23.8477 157.824 23.5508 157.824 23.1758C157.832 22.8008 157.836 22.3359 157.836 21.7812C157.844 21.2188 157.852 20.5391 157.859 19.7422ZM172.801 27.957C172.973 27.9414 173.137 27.8555 173.293 27.6992C173.426 27.5664 173.562 27.3555 173.703 27.0664C173.844 26.7695 173.961 26.3477 174.055 25.8008L174.488 25.8477C174.379 26.4961 174.23 26.9922 174.043 27.3359C173.863 27.6797 173.68 27.9297 173.492 28.0859C173.273 28.2734 173.043 28.375 172.801 28.3906C172.613 28.3906 172.371 28.3633 172.074 28.3086C171.785 28.2539 171.496 28.1562 171.207 28.0156C170.918 27.8828 170.652 27.7031 170.41 27.4766C170.168 27.25 170 26.9609 169.906 26.6094C169.586 27.1484 169.156 27.5859 168.617 27.9219C168.078 28.2656 167.465 28.4375 166.777 28.4375C166.434 28.4375 166.086 28.3984 165.734 28.3203C165.383 28.2422 165.059 28.1133 164.762 27.9336C164.473 27.7539 164.234 27.5195 164.047 27.2305C163.867 26.9336 163.777 26.5664 163.777 26.1289C163.777 25.582 163.883 25.1094 164.094 24.7109C164.312 24.3047 164.602 23.9688 164.961 23.7031C165.32 23.4297 165.73 23.2266 166.191 23.0938C166.652 22.9609 167.129 22.8945 167.621 22.8945C167.957 22.8945 168.281 22.9336 168.594 23.0117C168.914 23.0898 169.238 23.2266 169.566 23.4219C169.582 23.0234 169.613 22.625 169.66 22.2266C169.715 21.8281 169.762 21.457 169.801 21.1133C169.824 20.9102 169.84 20.7461 169.848 20.6211C169.863 20.4961 169.875 20.3945 169.883 20.3164C169.891 20.2383 169.895 20.1797 169.895 20.1406C169.902 20.1016 169.906 20.0664 169.906 20.0352C169.906 19.3242 169.777 18.7578 169.52 18.3359C169.262 17.9141 168.918 17.7031 168.488 17.7031C168.285 17.7188 168.078 17.7539 167.867 17.8086C167.656 17.8633 167.465 17.9414 167.293 18.043C167.121 18.1367 166.98 18.2578 166.871 18.4062C166.762 18.5469 166.707 18.7148 166.707 18.9102C166.707 19.1211 166.773 19.2891 166.906 19.4141C167.039 19.5312 167.184 19.6523 167.34 19.7773C167.504 19.8945 167.652 20.0312 167.785 20.1875C167.918 20.3438 167.984 20.5586 167.984 20.832C167.984 21.1211 167.938 21.3633 167.844 21.5586C167.758 21.7461 167.641 21.8984 167.492 22.0156C167.344 22.1328 167.176 22.2188 166.988 22.2734C166.801 22.3203 166.613 22.3438 166.426 22.3438C166.23 22.3438 166.035 22.3125 165.84 22.25C165.652 22.1797 165.48 22.0742 165.324 21.9336C165.176 21.793 165.051 21.6094 164.949 21.3828C164.855 21.1562 164.809 20.8828 164.809 20.5625C164.809 20.1328 164.914 19.7227 165.125 19.332C165.336 18.9414 165.613 18.5977 165.957 18.3008C166.301 18.0039 166.691 17.7656 167.129 17.5859C167.566 17.3984 168.012 17.2969 168.465 17.2812C168.887 17.2812 169.344 17.3672 169.836 17.5391C170.336 17.7109 170.801 18.0039 171.23 18.418C171.668 18.832 172.031 19.3867 172.32 20.082C172.609 20.7773 172.754 21.6484 172.754 22.6953C172.754 23.1875 172.734 23.6562 172.695 24.1016C172.664 24.5469 172.629 24.9609 172.59 25.3438C172.551 25.7188 172.512 26.0625 172.473 26.375C172.441 26.6875 172.426 26.957 172.426 27.1836C172.426 27.4102 172.445 27.5898 172.484 27.7227C172.531 27.8555 172.621 27.9336 172.754 27.957H172.801ZM169.707 25.9883C169.66 25.7227 169.625 25.4453 169.602 25.1562C169.578 24.8594 169.566 24.5625 169.566 24.2656V23.9492C169.348 23.7695 169.109 23.6367 168.852 23.5508C168.602 23.4648 168.375 23.4219 168.172 23.4219C167.68 23.4219 167.305 23.625 167.047 24.0312C166.789 24.4375 166.66 24.9766 166.66 25.6484C166.66 25.9297 166.688 26.1914 166.742 26.4336C166.805 26.6758 166.887 26.8867 166.988 27.0664C167.098 27.2383 167.227 27.375 167.375 27.4766C167.531 27.5703 167.703 27.6172 167.891 27.6172C168.078 27.6172 168.258 27.5703 168.43 27.4766C168.609 27.3828 168.777 27.2617 168.934 27.1133C169.09 26.957 169.234 26.7812 169.367 26.5859C169.5 26.3906 169.613 26.1914 169.707 25.9883ZM174.758 27.3125H176.562L176.879 12.1602L174.816 12.1133V11.6797L180.383 11.7852L180.043 27.3125H182.422V27.7344H174.758V27.3125Z" fill="black"/>
<path d="M82.688 42.348V53.5H81.232V42.348H82.688ZM89.4415 44.572C90.5082 44.572 91.3722 44.8973 92.0335 45.548C92.6948 46.188 93.0255 47.116 93.0255 48.332V53.5H91.5855V48.54C91.5855 47.6653 91.3668 46.9987 90.9295 46.54C90.4922 46.0707 89.8948 45.836 89.1375 45.836C88.3695 45.836 87.7562 46.076 87.2975 46.556C86.8495 47.036 86.6255 47.7347 86.6255 48.652V53.5H85.1695V44.732H86.6255V45.98C86.9135 45.532 87.3028 45.1853 87.7935 44.94C88.2948 44.6947 88.8442 44.572 89.4415 44.572ZM99.6759 44.572C100.743 44.572 101.607 44.8973 102.268 45.548C102.929 46.188 103.26 47.116 103.26 48.332V53.5H101.82V48.54C101.82 47.6653 101.601 46.9987 101.164 46.54C100.727 46.0707 100.129 45.836 99.3719 45.836C98.6039 45.836 97.9905 46.076 97.5319 46.556C97.0839 47.036 96.8599 47.7347 96.8599 48.652V53.5H95.4039V44.732H96.8599V45.98C97.1479 45.532 97.5372 45.1853 98.0279 44.94C98.5292 44.6947 99.0785 44.572 99.6759 44.572ZM109.462 53.644C108.641 53.644 107.894 53.4573 107.222 53.084C106.561 52.7107 106.038 52.1827 105.654 51.5C105.281 50.8067 105.094 50.0067 105.094 49.1C105.094 48.204 105.286 47.4147 105.67 46.732C106.065 46.0387 106.598 45.5107 107.27 45.148C107.942 44.7747 108.694 44.588 109.526 44.588C110.358 44.588 111.11 44.7747 111.782 45.148C112.454 45.5107 112.982 46.0333 113.366 46.716C113.761 47.3987 113.958 48.1933 113.958 49.1C113.958 50.0067 113.756 50.8067 113.35 51.5C112.956 52.1827 112.417 52.7107 111.734 53.084C111.052 53.4573 110.294 53.644 109.462 53.644ZM109.462 52.364C109.985 52.364 110.476 52.2413 110.934 51.996C111.393 51.7507 111.761 51.3827 112.038 50.892C112.326 50.4013 112.47 49.804 112.47 49.1C112.47 48.396 112.332 47.7987 112.054 47.308C111.777 46.8173 111.414 46.4547 110.966 46.22C110.518 45.9747 110.033 45.852 109.51 45.852C108.977 45.852 108.486 45.9747 108.038 46.22C107.601 46.4547 107.249 46.8173 106.982 47.308C106.716 47.7987 106.582 48.396 106.582 49.1C106.582 49.8147 106.71 50.4173 106.966 50.908C107.233 51.3987 107.585 51.7667 108.022 52.012C108.46 52.2467 108.94 52.364 109.462 52.364ZM119.137 52.156L121.857 44.732H123.409L119.969 53.5H118.273L114.833 44.732H116.401L119.137 52.156ZM124.297 49.084C124.297 48.188 124.479 47.404 124.841 46.732C125.204 46.0493 125.7 45.5213 126.329 45.148C126.969 44.7747 127.679 44.588 128.457 44.588C129.225 44.588 129.892 44.7533 130.457 45.084C131.023 45.4147 131.444 45.8307 131.721 46.332V44.732H133.193V53.5H131.721V51.868C131.433 52.38 131.001 52.8067 130.425 53.148C129.86 53.4787 129.199 53.644 128.441 53.644C127.663 53.644 126.959 53.452 126.329 53.068C125.7 52.684 125.204 52.1453 124.841 51.452C124.479 50.7587 124.297 49.9693 124.297 49.084ZM131.721 49.1C131.721 48.4387 131.588 47.8627 131.321 47.372C131.055 46.8813 130.692 46.508 130.233 46.252C129.785 45.9853 129.289 45.852 128.745 45.852C128.201 45.852 127.705 45.98 127.257 46.236C126.809 46.492 126.452 46.8653 126.185 47.356C125.919 47.8467 125.785 48.4227 125.785 49.084C125.785 49.756 125.919 50.3427 126.185 50.844C126.452 51.3347 126.809 51.7133 127.257 51.98C127.705 52.236 128.201 52.364 128.745 52.364C129.289 52.364 129.785 52.236 130.233 51.98C130.692 51.7133 131.055 51.3347 131.321 50.844C131.588 50.3427 131.721 49.7613 131.721 49.1ZM137.43 45.932V51.1C137.43 51.5267 137.521 51.8307 137.702 52.012C137.883 52.1827 138.198 52.268 138.646 52.268H139.718V53.5H138.406C137.595 53.5 136.987 53.3133 136.582 52.94C136.177 52.5667 135.974 51.9533 135.974 51.1V45.932H134.838V44.732H135.974V42.524H137.43V44.732H139.718V45.932H137.43ZM142.234 43.308C141.957 43.308 141.722 43.212 141.53 43.02C141.338 42.828 141.242 42.5933 141.242 42.316C141.242 42.0387 141.338 41.804 141.53 41.612C141.722 41.42 141.957 41.324 142.234 41.324C142.501 41.324 142.725 41.42 142.906 41.612C143.098 41.804 143.194 42.0387 143.194 42.316C143.194 42.5933 143.098 42.828 142.906 43.02C142.725 43.212 142.501 43.308 142.234 43.308ZM142.938 44.732V53.5H141.482V44.732H142.938ZM149.244 53.644C148.422 53.644 147.676 53.4573 147.004 53.084C146.342 52.7107 145.82 52.1827 145.436 51.5C145.062 50.8067 144.876 50.0067 144.876 49.1C144.876 48.204 145.068 47.4147 145.452 46.732C145.846 46.0387 146.38 45.5107 147.052 45.148C147.724 44.7747 148.476 44.588 149.308 44.588C150.14 44.588 150.892 44.7747 151.564 45.148C152.236 45.5107 152.764 46.0333 153.148 46.716C153.542 47.3987 153.74 48.1933 153.74 49.1C153.74 50.0067 153.537 50.8067 153.132 51.5C152.737 52.1827 152.198 52.7107 151.516 53.084C150.833 53.4573 150.076 53.644 149.244 53.644ZM149.244 52.364C149.766 52.364 150.257 52.2413 150.716 51.996C151.174 51.7507 151.542 51.3827 151.82 50.892C152.108 50.4013 152.252 49.804 152.252 49.1C152.252 48.396 152.113 47.7987 151.836 47.308C151.558 46.8173 151.196 46.4547 150.748 46.22C150.3 45.9747 149.814 45.852 149.292 45.852C148.758 45.852 148.268 45.9747 147.82 46.22C147.382 46.4547 147.03 46.8173 146.764 47.308C146.497 47.7987 146.364 48.396 146.364 49.1C146.364 49.8147 146.492 50.4173 146.748 50.908C147.014 51.3987 147.366 51.7667 147.804 52.012C148.241 52.2467 148.721 52.364 149.244 52.364ZM159.926 44.572C160.993 44.572 161.857 44.8973 162.518 45.548C163.179 46.188 163.51 47.116 163.51 48.332V53.5H162.07V48.54C162.07 47.6653 161.851 46.9987 161.414 46.54C160.977 46.0707 160.379 45.836 159.622 45.836C158.854 45.836 158.241 46.076 157.782 46.556C157.334 47.036 157.11 47.7347 157.11 48.652V53.5H155.654V44.732H157.11V45.98C157.398 45.532 157.787 45.1853 158.278 44.94C158.779 44.6947 159.329 44.572 159.926 44.572ZM181.466 42.428V53.5H180.01V45.244L176.33 53.5H175.306L171.61 45.228V53.5H170.154V42.428H171.722L175.818 51.58L179.914 42.428H181.466ZM191.935 48.78C191.935 49.0573 191.919 49.3507 191.887 49.66H184.879C184.932 50.524 185.226 51.2013 185.759 51.692C186.303 52.172 186.959 52.412 187.727 52.412C188.356 52.412 188.879 52.268 189.295 51.98C189.722 51.6813 190.02 51.2867 190.191 50.796H191.759C191.524 51.6387 191.055 52.3267 190.351 52.86C189.647 53.3827 188.772 53.644 187.727 53.644C186.895 53.644 186.148 53.4573 185.487 53.084C184.836 52.7107 184.324 52.1827 183.951 51.5C183.578 50.8067 183.391 50.0067 183.391 49.1C183.391 48.1933 183.572 47.3987 183.935 46.716C184.298 46.0333 184.804 45.5107 185.455 45.148C186.116 44.7747 186.874 44.588 187.727 44.588C188.559 44.588 189.295 44.7693 189.935 45.132C190.575 45.4947 191.066 45.996 191.407 46.636C191.759 47.2653 191.935 47.98 191.935 48.78ZM190.431 48.476C190.431 47.9213 190.308 47.4467 190.063 47.052C189.818 46.6467 189.482 46.3427 189.055 46.14C188.639 45.9267 188.175 45.82 187.663 45.82C186.927 45.82 186.298 46.0547 185.775 46.524C185.263 46.9933 184.97 47.644 184.895 48.476H190.431ZM201.857 48.78C201.857 49.0573 201.841 49.3507 201.809 49.66H194.801C194.854 50.524 195.148 51.2013 195.681 51.692C196.225 52.172 196.881 52.412 197.649 52.412C198.278 52.412 198.801 52.268 199.217 51.98C199.644 51.6813 199.942 51.2867 200.113 50.796H201.681C201.446 51.6387 200.977 52.3267 200.273 52.86C199.569 53.3827 198.694 53.644 197.649 53.644C196.817 53.644 196.07 53.4573 195.409 53.084C194.758 52.7107 194.246 52.1827 193.873 51.5C193.5 50.8067 193.313 50.0067 193.313 49.1C193.313 48.1933 193.494 47.3987 193.857 46.716C194.22 46.0333 194.726 45.5107 195.377 45.148C196.038 44.7747 196.796 44.588 197.649 44.588C198.481 44.588 199.217 44.7693 199.857 45.132C200.497 45.4947 200.988 45.996 201.329 46.636C201.681 47.2653 201.857 47.98 201.857 48.78ZM200.353 48.476C200.353 47.9213 200.23 47.4467 199.985 47.052C199.74 46.6467 199.404 46.3427 198.977 46.14C198.561 45.9267 198.097 45.82 197.585 45.82C196.849 45.82 196.22 46.0547 195.697 46.524C195.185 46.9933 194.892 47.644 194.817 48.476H200.353ZM205.555 45.932V51.1C205.555 51.5267 205.646 51.8307 205.827 52.012C206.008 52.1827 206.323 52.268 206.771 52.268H207.843V53.5H206.531C205.72 53.5 205.112 53.3133 204.707 52.94C204.302 52.5667 204.099 51.9533 204.099 51.1V45.932H202.963V44.732H204.099V42.524H205.555V44.732H207.843V45.932H205.555ZM212.711 53.644C212.039 53.644 211.436 53.532 210.903 53.308C210.37 53.0733 209.948 52.7533 209.639 52.348C209.33 51.932 209.159 51.4573 209.127 50.924H210.631C210.674 51.3613 210.876 51.7187 211.239 51.996C211.612 52.2733 212.098 52.412 212.695 52.412C213.25 52.412 213.687 52.2893 214.007 52.044C214.327 51.7987 214.487 51.4893 214.487 51.116C214.487 50.732 214.316 50.4493 213.975 50.268C213.634 50.076 213.106 49.8893 212.391 49.708C211.74 49.5373 211.207 49.3667 210.791 49.196C210.386 49.0147 210.034 48.7533 209.735 48.412C209.447 48.06 209.303 47.6013 209.303 47.036C209.303 46.588 209.436 46.1773 209.703 45.804C209.97 45.4307 210.348 45.1373 210.839 44.924C211.33 44.7 211.89 44.588 212.519 44.588C213.49 44.588 214.274 44.8333 214.871 45.324C215.468 45.8147 215.788 46.4867 215.831 47.34H214.375C214.343 46.8813 214.156 46.5133 213.815 46.236C213.484 45.9587 213.036 45.82 212.471 45.82C211.948 45.82 211.532 45.932 211.223 46.156C210.914 46.38 210.759 46.6733 210.759 47.036C210.759 47.324 210.85 47.564 211.031 47.756C211.223 47.9373 211.458 48.0867 211.735 48.204C212.023 48.3107 212.418 48.4333 212.919 48.572C213.548 48.7427 214.06 48.9133 214.455 49.084C214.85 49.244 215.186 49.4893 215.463 49.82C215.751 50.1507 215.9 50.5827 215.911 51.116C215.911 51.596 215.778 52.028 215.511 52.412C215.244 52.796 214.866 53.1 214.375 53.324C213.895 53.5373 213.34 53.644 212.711 53.644ZM223.688 52.316H227.592V53.5H222.232V42.348H223.688V52.316ZM228.594 49.084C228.594 48.188 228.776 47.404 229.138 46.732C229.501 46.0493 229.997 45.5213 230.626 45.148C231.266 44.7747 231.976 44.588 232.754 44.588C233.522 44.588 234.189 44.7533 234.754 45.084C235.32 45.4147 235.741 45.8307 236.018 46.332V44.732H237.49V53.5H236.018V51.868C235.73 52.38 235.298 52.8067 234.722 53.148C234.157 53.4787 233.496 53.644 232.738 53.644C231.96 53.644 231.256 53.452 230.626 53.068C229.997 52.684 229.501 52.1453 229.138 51.452C228.776 50.7587 228.594 49.9693 228.594 49.084ZM236.018 49.1C236.018 48.4387 235.885 47.8627 235.618 47.372C235.352 46.8813 234.989 46.508 234.53 46.252C234.082 45.9853 233.586 45.852 233.042 45.852C232.498 45.852 232.002 45.98 231.554 46.236C231.106 46.492 230.749 46.8653 230.482 47.356C230.216 47.8467 230.082 48.4227 230.082 49.084C230.082 49.756 230.216 50.3427 230.482 50.844C230.749 51.3347 231.106 51.7133 231.554 51.98C232.002 52.236 232.498 52.364 233.042 52.364C233.586 52.364 234.082 52.236 234.53 51.98C234.989 51.7133 235.352 51.3347 235.618 50.844C235.885 50.3427 236.018 49.7613 236.018 49.1ZM251.631 44.732L248.895 53.5H247.391L245.279 46.54L243.167 53.5H241.663L238.911 44.732H240.399L242.415 52.092L244.591 44.732H246.079L248.207 52.108L250.191 44.732H251.631Z" fill="black"/>
</svg>